<?xml version="1.0" encoding="utf-8"?>
<!-- Generator: Adobe Illustrator 20.0.0, SVG Export Plug-In . SVG Version: 6.00 Build 0)  -->
<svg version="1.1" id="Layer_1" xmlns="http://www.w3.org/2000/svg" xmlns:xlink="http://www.w3.org/1999/xlink" x="0px" y="0px"
	 viewBox="0 0 28 7.2" style="enable-background:new 0 0 28 7.2;" xml:space="preserve">
<style type="text/css">
	.st0{fill:#CCCC25;}
</style>
<g>
	<polygon class="st0" points="5.1,0 5.1,0 5.1,0 	"/>
	<polygon class="st0" points="9.5,7.2 9.5,7.2 5.1,2.7 5.1,2.7 	"/>
	<polygon class="st0" points="14,0 9.5,4.6 9.5,4.6 14,0 	"/>
	<polygon class="st0" points="18.4,7.2 18.4,7.2 14,2.7 14,2.7 	"/>
	<polygon class="st0" points="22.9,0 18.4,4.6 18.4,4.6 22.9,0 	"/>
	<polygon class="st0" points="28,5.2 26.7,6.6 22.9,2.7 22.9,2.7 18.4,7.2 14,2.7 14,2.7 14,2.7 9.5,7.2 5.1,2.7 5.1,2.7 1.3,6.6 
		0,5.2 5.1,0 5.1,0 9.5,4.6 9.5,4.6 9.5,4.6 14,0 18.4,4.6 18.4,4.6 18.4,4.6 22.9,0 22.9,0 	"/>
</g>
</svg>
