<?xml version="1.0" encoding="utf-8"?>
<!-- Generator: Adobe Illustrator 19.2.0, SVG Export Plug-In . SVG Version: 6.00 Build 0)  -->
<svg version="1.1" id="Layer_1" xmlns="http://www.w3.org/2000/svg" xmlns:xlink="http://www.w3.org/1999/xlink" x="0px" y="0px"
	 viewBox="0 0 230 138.8" style="enable-background:new 0 0 230 138.8;" xml:space="preserve">
<style type="text/css">
	.st0{fill:#FFFFFF;}
	.st1{fill:#FDDF11;}
</style>
<path id="_Path_" class="st0" d="M101.2,2.6l-0.5-0.1C101.1,2.7,101.2,2.7,101.2,2.6"/>
<path id="_Path_2" class="st0" d="M100.7,2.6l-0.6-0.1l0.5,0.3C100.6,2.7,100.6,2.6,100.7,2.6"/>
<polygon id="_Path_3" class="st0" points="99.8,2.4 100.1,2.5 99.9,2.4 "/>
<path id="_Path_5" class="st0" d="M82.9,2.9c0-0.1,0.6-0.2,0.1-0.2C82.9,2.8,82.1,3,82.9,2.9"/>
<path id="_Compound_Path_" class="st0" d="M93.5,78.2c-0.4,0.4-0.1,0.7,0.1,1c0.4,1,1,2,1.4,3.1c0.7,1.5,1.4,3.1,2.1,4.6
	c0.8,1.8,1.6,3.5,2.3,5.3c0.1,0.2,0.3,0.3,0.4,0.4l0,0l0.2,0.6h-0.1l0,0h0.2l0.5,1.7l0,0l0.2,0.2l0,0l0.2,0.2l0,0l2.4,4.8
	c1.4-2.2,2-4.6,3.3-6.6c1.1-2.7,2.2-5.3,3.6-7.9c0.2-0.5,0.4-1.2,0.7-1.8s0.6-0.9,0.8-1.4c0.5-1.2,1-2.4,1.5-3.6
	c0.2-0.5,0.5-1,0.8-1.5c0.5-1.1,1-2.1,1.5-3.2c0.2-0.5,0.4-1,0.6-1.4c0.5-1.3,1.4-2.5,1.8-3.8c0.3-0.8,0.6-1.5,1-2.3l0.7-0.3
	c2,0.3,4-0.2,6.1,0.2v3h0.2l0.4-0.5l-0.2,1.6l-0.2-0.9h-0.2v22.8l0.4,0.2l0,0l0.1,0.4h-0.4c0,0-0.1,0.1-0.1,0.1
	c0,0.8-0.1,1.7-0.1,2.5c0,0.2,0.1,0.4,0.1,0.6c0,1.7-0.1,3.3-0.1,5c0,1.2,0.1,2.4,0.1,3.6c0,0.3,0,0.6,0,0.9
	c0.1,0.3,0.1,0.6,0.2,0.9l0,0l0.1,0.3l-0.6,0.7c0.4,1.2,0.1,2.5,0.3,3.7l0.4-0.5v3.1L126,112h-0.3v3H120c-0.6,0-1.2,0-1.4-0.5
	c0-2.3,0-4.5,0-6.7s0.1-4.3,0.1-6.5c0.1-2.1,0-4.3-0.1-6.4c-0.2-2.2,0.3-4.3-0.2-6.5l-0.2-0.1c-0.2,0.5-0.4,0.9-0.7,1.4
	s-0.5,0.9-0.7,1.4s-0.3,1-0.6,1.5s-0.6,0.9-0.8,1.4s-0.3,1-0.5,1.5c-0.1,0.5-0.4,1-0.7,1.4c-0.4,0.4-0.3,0.8-0.6,1.2
	s-0.6,0.8-0.9,1.3l0.1,0.2l-0.4,0.2c0.1,0.8-0.2,1.5-0.9,1.9v0.8c-0.6,0.4-1,1.1-1,1.9c-0.2,0.3-0.4,0.6-0.6,0.9
	c-0.7,1.7-1.4,3.5-2.2,5.2c-0.2,0.4-0.4,0.8-0.6,1.1c-0.4,0-0.8,0.1-1.2,0.1c-1.2,0-2.4,0-3.6,0c-0.8,0-1.5,0.1-2.3,0.1
	c-1.2-0.6-1.4-1.9-1.8-3c-0.1-0.4-0.4-0.8-0.6-1.2c-1.2-2.8-2.5-5.6-3.8-8.3c-1.1-2.4-2.3-4.8-3.5-7.2c-0.1-0.3-0.4-0.6-0.7-1.1
	c-0.1,0.3-0.2,0.7-0.2,1c0,0.8,0,1.5,0,2.3c0,2.1,0,4.2,0,6.3c0,1.5,0,3.1,0.1,5v3.5l-0.3,0.2l0.2,1.8c-0.2,0.5-0.3,1.1-0.2,1.6
	c0,0.7-0.1,1.4-0.1,2.2c-0.5,0-0.9,0.1-1.3,0.1c-2.1,0-4.3,0-6.4,0c-0.1,0-0.3-0.1-0.5-0.3c0-0.9,0-1.8,0-2.8s0-2,0.1-3
	c0.2-1.9-0.1-3.8,0-5.7c0-1.2,0.1-2.3,0.1-3.5c0-0.3-0.2-0.6-0.2-0.9c0-1.5,0-3,0-4.5s0-2.8,0-4.2c0-0.7,0.1-1.4,0.1-2.1
	c0-0.1,0-0.3,0-0.4c-0.4-0.6-0.2-1.3-0.2-1.9c0-2-0.1-4-0.1-6.1c0-2.3,0.1-4.5,0.1-6.8c0-0.9,0-1.9-0.2-2.8c-0.1-1.1,0-2.3,0.2-3.4
	c2.3-0.3,4.7-0.3,7.1-0.1c0.4,0.9,0.8,1.9,1.3,2.8c0.1,0.2,0,0.5,0.5,0.5c0.3,0,0.3,0.5,0.1,0.8v-0.3h-0.1l0.2,0.3
	c0.3,1.2,0.8,2.4,1.5,3.4c0.3,0.4,0,1.1,0.7,1.3l0,0c0.2,1,0.6,2,1.4,2.7L93.5,78.2z M90.4,80.2L90.4,80.2L90.4,80.2L90.4,80.2
	 M111.8,97.6L111.8,97.6L111.8,97.6L111.8,97.6 M87.5,105.3l0.2-0.1l-0.3-0.6l-0.2,0.1L87.5,105.3 M121.7,85.3l0.1-0.3h-0.5v0.2
	L121.7,85.3 M111.5,86.9c0.3,0.1,0.6,0.2,0.5-0.4L111.5,86.9 M110.3,100.9l0.1,0.2l0.3-0.2l-0.1-0.1L110.3,100.9 M110.4,92.4
	l-0.1,0.1l0.2,0.2l0.1-0.1L110.4,92.4z M83.8,95.7l0.1,0.1l0.2-0.2L84,95.4L83.8,95.7 M113.9,87.7c0.1,0,0.2,0,0.3,0s0-0.2,0-0.3
	L113.9,87.7 M110.6,99l-0.2-0.1l-0.1,0.3l0.1,0.1L110.6,99z M110.6,98.3L110.6,98.3L110.6,98.3z M111.3,98.6L111.3,98.6 M112.4,86.5
	l0.2,0.1c0,0,0-0.1,0-0.1L112.4,86.5 M85.9,109.8c0,0,0-0.1,0.1-0.1l0,0L85.9,109.8 M109.7,105l0.1,0.1V105L109.7,105 M117.3,80.4
	L117.3,80.4v0.1l0,0C117.3,80.6,117.3,80.5,117.3,80.4 M112.3,96.7l0.1,0.1l0,0L112.3,96.7 M124.3,95.6L124.3,95.6L124.3,95.6
	L124.3,95.6z M89.2,97.2L89.2,97.2L89.2,97.2L89.2,97.2z M85.6,110.1C85.6,110.1,85.6,110,85.6,110.1c-0.1-0.1-0.1,0-0.1,0
	C85.4,110.1,85.4,110.1,85.6,110.1L85.6,110.1 M103.4,103L103.4,103L103.4,103L103.4,103z M109.9,99.8L109.9,99.8L109.9,99.8
	L109.9,99.8z M90.3,75L90.3,75L90.3,75L90.3,75z M114.4,78.8C114.4,78.8,114.4,78.8,114.4,78.8c-0.1-0.1-0.1-0.1-0.1,0
	S114.3,78.9,114.4,78.8C114.4,78.9,114.4,78.9,114.4,78.8 M117.4,72.8C117.4,72.8,117.4,72.8,117.4,72.8c-0.1,0.1-0.1,0.1-0.1,0.1
	S117.4,73,117.4,72.8C117.4,72.9,117.4,72.9,117.4,72.8 M122.9,72.3C122.9,72.3,122.9,72.3,122.9,72.3c-0.1-0.1-0.1-0.1-0.1-0.1
	S122.7,72.3,122.9,72.3C122.9,72.3,122.8,72.3,122.9,72.3 M115.5,93.7L115.5,93.7C115.5,93.7,115.5,93.7,115.5,93.7
	C115.5,93.6,115.5,93.7,115.5,93.7C115.5,93.7,115.5,93.7,115.5,93.7 M112.8,83.4L112.8,83.4L112.8,83.4L112.8,83.4z M86.6,80.4
	L86.6,80.4c-0.1-0.1-0.1-0.1-0.1,0S86.4,80.4,86.6,80.4L86.6,80.4 M119.1,89L119.1,89L119.1,89L119.1,89z M117.9,86.9L117.9,86.9
	l-0.1,0L117.9,86.9L117.9,86.9 M95.5,86.8L95.5,86.8c-0.1,0.1-0.1,0.1,0,0.1S95.5,86.9,95.5,86.8L95.5,86.8 M113.9,86.4L113.9,86.4
	L113.9,86.4L113.9,86.4z M112.5,83.8L112.5,83.8c-0.1-0.1-0.1-0.1-0.1,0S112.3,83.8,112.5,83.8L112.5,83.8"/>
<path id="_Compound_Path_2" class="st0" d="M223,76c0.1,0.2,0.1,0.5,0.2,0.7c1.2,1.7,2.1,3.5,2.9,5.4c0.8,2.2,1.3,4.5,1.5,6.8
	c0,0.2,0.1,0.4,0.1,0.6c0,0.2-0.1,0.5-0.2,0.7c0.3,1.1,0.3,2.3-0.2,3.4c0.1,0.6,0.1,1.2,0,1.7c-0.5,2.4-1.3,4.8-2.5,6.9
	c-0.7,1.4-1.6,2.7-2.6,3.9c-1.2,1.4-2.5,2.7-3.9,3.8c-1.7,1.3-3.5,2.4-5.4,3.2c-1.7,0.7-3.5,1.3-5.3,1.7c-1.3,0.3-2.6,0.4-3.9,0.3
	c-0.1,0-0.3,0-0.4,0c-1.3,0.2-2.6,0.1-3.9-0.2c-1.7-0.2-3.3-0.7-4.9-1.3c-1.4-0.6-2.8-1.2-4.1-1.9c-1.1-0.6-2.1-1.3-3.1-2.1
	c-1.1-0.9-2.2-1.9-3.2-3c-1.2-1.4-2.2-2.8-3.1-4.4c-0.5-0.8-0.9-1.7-1.2-2.6c-0.9-2.3-1.5-4.7-1.7-7.1c-0.2-2.3-0.1-4.7,0.4-7
	c0.4-1.8,0.9-3.6,1.7-5.3c1.5-3.1,3.5-5.9,6-8.2c2.4-2.1,5.1-3.7,8.1-4.8c2.2-0.8,4.4-1.2,6.7-1.4c2.5-0.2,5.1,0,7.5,0.7
	c1.7,0.4,3.4,1,5,1.9c1.2,0.7,2.4,1.3,3.5,2c0.9,0.7,1.8,1.5,2.6,2.3c0.3,0.3,0.6,0.5,1,0.8l0,0c0,0.1,0,0.2,0,0.2
	C221.6,74.5,222.1,75.5,223,76L223,76z M226,93.7L226,93.7L226,93.7L226,93.7L226,93.7 M222.8,78.3l-0.1-0.1l-0.1,0.1l-0.1,0.2h0.1
	v-0.3L222.8,78.3L222.8,78.3L222.8,78.3 M191,77l-0.2-0.2l-0.1,0.1L191,77L191,77L191,77 M222.8,96L222.8,96L222.8,96v-0.7l-0.2,0.1
	L222.8,96 M198.9,111l0.6-0.2v-0.2l-0.5-0.2L198.9,111v0.3h0.1L198.9,111 M186.8,95L186.8,95c0.1,0.4,0.2,0.8,0.3,1.2
	c0.5,1,1,1.9,1.6,2.9c0.4,0.6,0.9,1.2,1.3,1.8l0,0l0.4,0.4c0,0.5,0.3,0.7,0.8,0.8c0,0.1,0,0.2,0,0.2c1.6,1.8,3.7,3.2,5.9,4.2
	c1.9,0.8,4,1.2,6.1,1c1.6-0.1,3.2-0.4,4.8-0.7c2-0.4,3.9-1.2,5.4-2.5c0.9-0.7,1.7-1.5,2.4-2.3c1.5-1.8,2.6-3.8,3.3-5.9
	c0.3-1.1,0.6-2.3,0.7-3.5c0.1-1.5,0.1-3.1-0.2-4.6c-0.2-1-0.5-2.1-0.8-3.1l0,0l0.2-0.1c-0.7-0.5-1.1-1.3-1.3-2.1
	c-0.3-0.4-0.6-0.7-0.8-1c-1.3-1.9-3-3.5-4.9-4.7c-2.3-1.4-5-2.3-7.7-2.5c-3.3-0.3-6.6,0.3-9.6,1.9c-1.6,0.8-3.1,2-4.4,3.3
	c-0.4,0.5-1,1-0.9,1.8c-0.5,0-0.9,0.4-0.9,0.9l-0.1,0.1l0.1,0.1c0.1,0.5-0.4,0.4-0.7,0.6l-0.5,1.5l0,0c-0.5,0.6-0.7,1.4-0.7,2.2
	c-0.1,0-0.2,0.1-0.2,0.1c0,0.1,0,0.2,0.1,0.2h0.1v-0.4l0.4-0.2l0,0c0.1,0.5-0.1,1-0.6,1.1c0,0-0.1,0-0.1,0v0.8l0.3-0.4l0.2,0
	l-0.1,0.8l-0.4,0.1l-0.1,2.4h0.1l0.2-0.6c0.2,0.4,0.3,0.7,0.2,1.1c-0.1,0.3-0.2,0.7-0.3,1c0,0.1,0.1,0.2,0.1,0.3l0,0L186.8,95
	 M181.8,101.9c0.2-0.5,0.2-0.6-0.4-0.9L181.8,101.9 M203.8,112.3h-0.3l0.1,0.6h0.2L203.8,112.3 M207.4,112.5l-0.1-0.2l-0.4,0.5
	l0.1,0.1L207.4,112.5 M186.3,92l-0.2,0.1l0.3,0.4l0.1-0.1L186.3,92 M181.3,81.2l-0.1-0.2l-0.4,0.2v0.1L181.3,81.2 M181.6,86.5
	l-0.1-0.2l-0.3,0.2l0.1,0.1L181.6,86.5 M207.1,109.3l-0.1,0.1l0.2,0.1l0.1-0.2L207.1,109.3 M225,82.3v-0.4l-0.3,0.2L225,82.3
	 M209.8,112l0.2-0.2l-0.3-0.3l-0.2,0.2L209.8,112 M220.7,97.5h0.2l-0.1-0.3h-0.1V97.5z M204.6,109.9L204.6,109.9l0.1,0.3l0.1-0.1
	L204.6,109.9 M199.2,109.1v0.1h0.2V109L199.2,109.1 M180.3,85.7v0.1h0.3v-0.1L180.3,85.7 M223.3,91.1
	C223.3,91.1,223.3,91.1,223.3,91.1l0.3,0.1c0,0,0-0.1,0-0.1L223.3,91.1z M193.3,70.2L193.3,70.2 M193.9,70.2L193.9,70.2l-0.2-0.1
	v0.1H193.9 M198.8,71.1l0.1-0.2h-0.2L198.8,71.1 M214.9,111.1L214.9,111.1L214.9,111.1L214.9,111.1 M204.2,113.5L204.2,113.5
	 M209.1,110L209.1,110 M215.5,107.1L215.5,107.1L215.5,107.1L215.5,107.1 M185.1,107.1c0,0-0.1,0.1-0.1,0.1h0.1L185.1,107.1
	 M221.4,99.5L221.4,99.5L221.4,99.5L221.4,99.5z M186,95.6L186,95.6c-0.1,0.1-0.1,0.1,0,0.1s0,0,0.1,0L186,95.6 M197.7,112.5
	L197.7,112.5L197.7,112.5z M202.3,111.5L202.3,111.5L202.3,111.5z M182,102.1L182,102.1L182,102.1L182,102.1z M220.8,104.5
	L220.8,104.5c-0.1,0.1-0.1,0.1,0,0.1S220.8,104.6,220.8,104.5L220.8,104.5 M185.6,77.6L185.6,77.6L185.6,77.6L185.6,77.6z
	 M187.5,75.6L187.5,75.6c0.1-0.1,0.1-0.1,0-0.1S187.5,75.5,187.5,75.6L187.5,75.6 M219.6,73.4L219.6,73.4L219.6,73.4L219.6,73.4z
	 M193.3,71.9L193.3,71.9c-0.1-0.1-0.1-0.1-0.1,0S193.2,71.9,193.3,71.9L193.3,71.9 M219.9,89.6L219.9,89.6L219.9,89.6
	C219.9,89.6,219.9,89.6,219.9,89.6L219.9,89.6 M220.6,93.8L220.6,93.8L220.6,93.8C220.5,93.8,220.5,93.8,220.6,93.8L220.6,93.8"/>
<path id="_Compound_Path_3" class="st0" d="M35.6,72.4c0.6,0.6,1,1.3,1.1,2.1l0,0l-0.4,0.2l0.3,1.1l-0.6,0.4l0.1,0.4h-0.9l0.4,0.5
	l-1.2,1.2l0.1-0.6l-0.4,0.5h-0.1l0,0h0.3c-0.2,0.5-0.7,0.8-1.2,0.8l0.1,0.3l-1.1,0.5l0,0v-0.3h0.1l0,0L31.6,80
	c-0.4-0.4-0.8-0.8-1.2-1.3c-1-1.4-2.4-2.6-4-3.3c-1.4-0.7-2.9-1.1-4.4-1.2c-1.6-0.1-3.1,0-4.6,0.4c-0.8,0.2-1.6,0.6-2.4,1
	c-1.4,0.8-1.8,2.2-2.2,3.6c-0.1,0.3-0.1,0.6-0.2,0.9l0.7,2.8c1.2,1.1,2.5,2,3.9,2.7c0.3,0.1,0.7,0.2,1,0.3c1.7,0.6,3.5,1.1,5.3,1.3
	c0.2,0,0.5,0.3,0.7,0.4l1.4,0.3l0.5,1v-0.7c1.6,0.3,3.1,0.8,4.6,1.6c1.3,0.6,2.5,1.4,3.5,2.3c1.5,1.3,2.6,3.1,3.2,5
	c0.3,1.3,0.5,2.5,0.6,3.8c0.1,2-0.2,3.9-0.9,5.8c-0.5,1-1.1,2-1.7,3c-0.7,1.3-1.7,2.4-2.9,3.2c-0.6,0.4-1.2,0.8-1.9,1.1
	c-1.5,0.7-3.1,1.3-4.8,1.8c-0.8,0.2-1.6,0.3-2.3,0.4c-0.8,0.1-1.6,0.1-2.4,0.1c-1.8,0.1-3.5,0-5.2-0.4c-1.4-0.3-2.8-0.8-4.1-1.3
	c-3-1.4-5.6-3.4-7.6-6c-0.4-0.7-0.9-1.4-1.5-2.1c-0.2-0.2-0.2-0.5-0.3-0.8c0.6-1.4,4.8-5.6,5.9-6c0.2,0.3,0.4,0.5,0.5,0.8
	c0.5,1.1,1.2,2.1,2,2.9c0.6,0.7,1.2,1.4,1.9,2c0.8,0.8,1.9,1.4,3,1.7c0.2,0,0.4,0.1,0.5,0.2c1.3,0.7,2.9,1,4.4,0.9
	c1.3,0,2.6-0.3,3.8-0.8c0.3-0.1,0.6-0.2,0.9-0.3l0.8-0.6c0.9-0.6,1.7-1.4,2.2-2.4c0.5-1.3,0.5-2.7,0.2-4c-0.3-1.1-1-2.1-2-2.7
	c-1.5-1-3.2-1.6-5-1.9c-0.6-0.2-1.2-0.3-1.9-0.5c-1.4-0.4-2.9-0.6-4.3-1.1c-1.1-0.2-2.2-0.6-3.2-1.1c-0.6-0.4-1.4-0.4-2-0.8
	C9.4,91.5,8.7,91,8,90.5c-1.5-1.2-2.7-2.8-3.3-4.6c-0.6-1.3-1.1-2.6-1.2-4c-0.1-0.9-0.1-1.8-0.1-2.7c0-1,0.1-1.9,0.3-2.9
	c0.3-1.7,1-3.3,2.1-4.6c0.9-1.1,1.9-2.1,3.1-2.9c2.2-1.4,4.7-2.3,7.3-2.7c0.4-0.1,0.7-0.1,1.1-0.2c0.4,0,0.8,0,1.2,0
	c1.3-0.2,2.7-0.2,4-0.1h-0.1v-0.1c1.3,0,2.6,0.2,3.9,0.6h-0.1l0,0c0.7,0,1.3,0.2,1.9,0.5l0,0v-0.1c0.2,0.1,0.5,0.3,0.7,0.3
	c0.6-0.1,0.8,0.3,1,0.8l0.1-0.4c0.6,0.1,1.2,0.4,1.8,0.7c0.7,0.3,0.5,1,1,1.4v-0.4C32.9,69.3,35.3,71.7,35.6,72.4h-0.3v0.1
	L35.6,72.4 M12.2,92L12.2,92L12.2,92L12.2,92 M12.4,68.6L12.4,68.6L12.4,68.6L12.4,68.6L12.4,68.6 M7.2,77.8L7.2,77.8L7.2,77.8
	L7.2,77.8L7.2,77.8 M4.2,106.3L4,106L4,105.7l-0.1,0.1l0.2,0.3L4.2,106.3L4.2,106.3L4.2,106.3 M19,115.1L19,115.1L19,115.1L19,115.1
	L19,115.1z M7.9,81.4l-0.2,0.3l0.2,0.1L7.9,81.4L7.9,81.4L7.9,81.4z M20.3,69.4l0.1,0.1h0L20.3,69.4l0-0.6l-0.2,0.1L20.3,69.4
	 M12,68.3c0,0,0,0.1,0,0.1V68.3l-0.2-0.7l-0.4,0.6L12,68.3 M7.1,78.6c-0.3,0.2-0.3,0.4,0,0.6V78.6z M34,109.9
	c-0.2-0.3-0.2-0.8-0.7-0.6l0.2,1.5L34,109.9 M14,114.3c0-0.7,0-0.7-0.7-0.6L14,114.3 M16,113.8l0.2-0.1l-0.3-1.1l-0.2,0.1L16,113.8
	 M31.4,94.8h-0.2v0.7h0.2L31.4,94.8 M10.3,84l-0.2,0.1l0.4,0.7l0.2-0.1L10.3,84 M18.1,68.4h0.2l0.1-0.8h-0.2L18.1,68.4z M16.9,71.3
	h-0.2l-0.1,0.6h0.2L16.9,71.3 M18.1,113.8h0.2v-0.6h-0.1L18.1,113.8 M33.5,108.5h-0.2v0.5h0.2L33.5,108.5z M9.6,85.2l0.2-0.1
	l-0.2-0.4l-0.2,0.1L9.6,85.2z M18.4,66.4c-0.2,0.3-0.2,0.3,0.1,0.6c0-0.2,0-0.3,0-0.5S18.5,66.5,18.4,66.4 M30.1,69.9l0.1,0.1
	l0.2-0.2l-0.1-0.1L30.1,69.9 M7.6,82.3l-0.1-0.1c-0.1,0-0.2,0.1-0.2,0.1c0,0.2,0,0.3,0.1,0.5L7.6,82.3 M15.2,69.8L15.2,69.8
	l-0.1-0.4L15,69.5L15.2,69.8 M16.2,115.2h0.2l-0.1-0.5h-0.2L16.2,115.2 M33.5,104l0.1-0.2l-0.4-0.1L33.5,104 M32,92.8l-0.1,0.1
	l0.2,0.2l0.1-0.1L32,92.8z M12.3,69.2l0.1,0.1l0.2-0.3l-0.1-0.1L12.3,69.2 M14.9,112.1L15,112l-0.3-0.3L14.9,112.1 M8.5,101.2
	L8.3,101l-0.2,0.2l0.1,0.1L8.5,101.2z M12.7,113.2l0.1,0.2l0.2-0.2L13,113L12.7,113.2 M26.7,69.7v0.2l0.4-0.2L26.7,69.7 M18,69
	L18,69l0.1-0.3L18,69 M36.9,103l0.2-0.1l-0.1-0.2L36.9,103 M11.2,69.2L11.2,69.2l0.3-0.1L11.4,69L11.2,69.2 M30.9,90.3L30.9,90.3
	l-0.2,0.1l0.1,0.1L30.9,90.3 M36.2,98C36.1,98,36.2,98,36.2,98S36,98,36.2,98 M34.3,92.6h-0.1l0,0H34.3 M36.8,103.8L36.8,103.8
	l0.1-0.2h-0.1V103.8 M16.8,109.6L16.8,109.6L16.8,109.6L16.8,109.6z M27,74.8L27,74.8l0.2,0.1c0,0,0-0.1,0-0.1L27,74.8 M23.6,66.1
	L23.6,66.1 M17,93.4l-0.1-0.1v0.1L17,93.4 M13.4,106.6L13.4,106.6l0.1-0.2h-0.1V106.6z M10.7,108L10.7,108 M11.2,78L11.2,78l0.2,0.1
	V78H11.2 M5.1,107.8L5.1,107.8L5.1,107.8z M10.5,106.8L10.5,106.8L10.5,106.8C10.4,106.8,10.4,106.8,10.5,106.8L10.5,106.8
	 M19.2,111.3L19.2,111.3L19.2,111.3L19.2,111.3z M33.5,110.9L33.5,110.9c0.1-0.1,0.1-0.1,0-0.1S33.5,110.8,33.5,110.9L33.5,110.9
	 M20.6,114.1L20.6,114.1L20.6,114.1L20.6,114.1z M5.3,104.4C5.3,104.4,5.3,104.3,5.3,104.4c-0.1-0.1,0-0.1-0.1-0.1
	S5.2,104.4,5.3,104.4C5.3,104.4,5.2,104.4,5.3,104.4 M21.3,114.5L21.3,114.5c0-0.1-0.1-0.1-0.1,0s0,0,0,0.1L21.3,114.5 M4.1,77.5
	L4.1,77.5L4.1,77.5L4.1,77.5z M11.4,76.7L11.4,76.7L11.4,76.7L11.4,76.7z M22.8,73.7L22.8,73.7c0-0.1-0.1-0.1-0.1,0
	S22.7,73.6,22.8,73.7L22.8,73.7 M32.8,78.8L32.8,78.8L32.8,78.8z M33.5,78.5L33.5,78.5L33.5,78.5L33.5,78.5z M8,78C8,78,8,77.9,8,78
	c-0.1-0.1,0-0.1-0.1-0.1S7.9,78,8,78C8,78,7.9,78,8,78 M30.6,68.2L30.6,68.2L30.6,68.2L30.6,68.2z M14.2,68.2L14.2,68.2L14.2,68.2z
	 M30.2,68.1C30.2,68.1,30.2,68,30.2,68.1C30.1,68,30.2,68,30.1,68S30.1,68.1,30.2,68.1C30.2,68.1,30.2,68.1,30.2,68.1 M22.6,73.3
	L22.6,73.3L22.6,73.3L22.6,73.3z M33.9,70.9L33.9,70.9l-0.1,0L33.9,70.9L33.9,70.9 M10.8,69.8L10.8,69.8L10.8,69.8L10.8,69.8z
	 M17.9,93L17.9,93L17.9,93L17.9,93z M11.8,91.5L11.8,91.5C11.8,91.5,11.8,91.5,11.8,91.5C11.7,91.5,11.8,91.5,11.8,91.5
	C11.8,91.5,11.8,91.5,11.8,91.5 M10.1,91.4L10.1,91.4L10.1,91.4L10.1,91.4z M32.1,90.9L32.1,90.9L32.1,90.9z M22.5,90.4L22.5,90.4
	L22.5,90.4L22.5,90.4z M35.2,94.6L35.2,94.6L35.2,94.6L35.2,94.6z M18.2,93.7C18.2,93.7,18.2,93.6,18.2,93.7c-0.1-0.1,0-0.1-0.1-0.1
	S18.1,93.7,18.2,93.7C18.2,93.7,18.1,93.7,18.2,93.7 M11.1,82.5C11.1,82.5,11.1,82.4,11.1,82.5c-0.1-0.1-0.1-0.1-0.1,0
	S11,82.5,11.1,82.5C11.1,82.5,11,82.5,11.1,82.5 M7.8,88.3L7.8,88.3L7.8,88.3z M15.2,84.9L15.2,84.9L15.2,84.9L15.2,84.9z"/>
<path id="_Compound_Path_4" class="st0" d="M41.4,100.1c-0.2-0.9-0.3-1.9-0.2-2.9c0-1-0.1-1.9-0.1-2.9c0-2.4,0.1-4.7,0.1-7.1
	c0-0.3,0.1-0.6,0.4-0.6l0,0l-0.4-0.4c0.1-1.8,0.2-3.6,0.2-5.4c0-1.2-0.1-2.3-0.1-3.5c0-3.2,0.1-6.3,0.2-9.5c0.1-0.4,0.2-0.8,0.4-1.2
	l0.9,0.3l0.1-0.3h6l0.8,0.7c0,0.3,0.1,0.9,0.1,1.4c0.1,1.2,0.1,2.4,0,3.7c-0.1,1.7-0.1,3.3,0,5c0,1.2-0.1,2.4-0.1,3.5
	c-0.1,0.8,0,1.7,0.1,2.5c0,0.4-0.1,0.8-0.1,1.3c0,1.2,0.1,2.4,0.1,3.6c0,1.4-0.2,2.9-0.3,4.3c0,1.3,0,2.5,0,3.8c0,0.8,0,1.6,0.1,2.4
	c0.1,0.6,0.2,1.1,0.3,1.7c0.2,0.7,0.3,1.3,0.5,1.9c0.1,0.4,0.3,0.7,0.5,1c0.1,0.1,0.2,0.2,0.2,0.3c0.3,1.2,1.1,2.2,2.2,2.8
	c0.3,0.2,0.7,0.5,0.9,0.6l3.4,1c1-0.2,2.4-0.4,3.7-0.8c1.5-0.5,2.9-1.5,3.9-2.8c1-1.3,1.6-2.8,2-4.4c0.1-0.3,0.1-0.7,0.1-1
	c0.1-1.6,0.1-3.3,0.1-4.9c0-1,0.1-2,0.1-3.1s-0.1-1.9-0.1-2.8c0-0.3,0-0.7,0-1.1c0-1.1,0-2.2,0-3.3c0-0.9,0-1.9,0-2.8
	c0-0.5,0-1.1,0-1.6c0-0.4,0.1-0.7,0.2-1.1l0,0c-0.1-0.1-0.2-0.2-0.2-0.2c0-0.7,0-1.4,0-2.2c0-1.7,0-3.4,0.1-5.2
	c0-1.2,0.1-2.4,0.1-3.7c2.5-0.2,5-0.2,7.5,0.2c-0.4,0.5-0.5,0.8,0,1.2l0.2-0.8c0.1,0.9,0.2,1.6,0.2,2.2c0,1.2,0,2.4,0,3.6
	c0,2,0.1,4,0.1,5.9c0,0.8-0.2,1.6-0.1,2.4c0.1,1.2-0.1,2.4,0.1,3.6c0,1,0,2-0.1,3c0,0.9,0.1,1.8,0.1,2.6c0,1-0.1,2.1-0.1,3.1
	c0,1.8,0.1,3.5-0.1,5.3c-0.1,1.4-0.4,2.7-0.8,4.1c-0.4,1.6-1.1,3.2-2,4.6c-0.9,1.6-2.2,3.1-3.8,4.1c-0.3,0.2-0.6,0.5-0.9,0.8
	l-2.9,1.6c-0.5,0.3-1.2,0.3-1.8,0.5c-0.9,0.4-1.9,0.6-2.8,0.7c-2,0.2-4,0.1-6-0.2c-1.5-0.3-2.9-0.8-4.3-1.6
	c-0.8-0.4-1.5-0.8-2.2-1.3c-0.3-0.3-0.6-0.5-0.8-0.8c-0.5-0.3-1-0.7-1.4-1.1c-1.8-1.9-3.1-4.2-3.9-6.7c-0.3-1.1-0.6-2.2-0.7-3.3
	C41.3,100.4,41.4,100.2,41.4,100.1l0.3,0.2l0-0.2L41.4,100.1 M49.3,67.6L49.3,67.6L49.3,67.6L49.3,67.6z M74.6,101.3l-0.1,0.4h0.2
	L74.6,101.3h0.1H74.6z M48.2,95.4l-0.1,0.2l0.4,0.3l0.1-0.2L48.2,95.4 M48.4,86.7h0.1v-0.4h-0.2L48.4,86.7 M48.4,93.7l0.1-0.1
	l-0.3-0.2l-0.1,0.1L48.4,93.7 M74.6,92.2h-0.1v0.3L74.6,92.2 M48.4,80.4l0.1,0.1l0.2-0.1l-0.1-0.1L48.4,80.4 M48.5,97.1L48.3,97
	l-0.1,0.2l0.1,0.1L48.5,97.1 M74.3,94.2h0.1l0.1-0.3l-0.1-0.1L74.3,94.2 M70.2,110.1l-0.1-0.1l-0.2,0.3l0.1,0.1L70.2,110.1
	 M73.1,101.3l-0.2-0.1c0,0,0,0.1,0,0.1L73.1,101.3 M42.1,91.9L42.1,91.9l-0.2-0.1v0.1L42.1,91.9 M48.5,75.3L48.5,75.3 M74.5,96.1
	c0,0-0.1-0.1-0.1-0.1c0,0,0,0-0.1,0.1L74.5,96.1L74.5,96.1 M43.8,95.3l0.2,0.1c0,0,0-0.1,0-0.1L43.8,95.3 M68.4,72.1h-0.2v0.1
	L68.4,72.1L68.4,72.1z M74.3,80.3v0.1h0.2v-0.1L74.3,80.3 M48.4,96.6L48.4,96.6L48.4,96.6z M47.4,111.2L47.4,111.2
	C47.4,111.1,47.3,111.1,47.4,111.2C47.3,111.1,47.3,111.1,47.4,111.2L47.4,111.2 M69.2,108.3L69.2,108.3L69.2,108.3L69.2,108.3z
	 M49.6,104L49.6,104L49.6,104L49.6,104z M74.4,74.2L74.4,74.2c-0.1-0.1-0.1-0.1-0.1,0s0,0,0,0.1L74.4,74.2 M74.4,79.4L74.4,79.4
	C74.4,79.3,74.4,79.3,74.4,79.4C74.3,79.3,74.3,79.4,74.4,79.4C74.3,79.4,74.3,79.4,74.4,79.4 M48.6,78.8L48.6,78.8L48.6,78.8
	L48.6,78.8z M42,78.2L42,78.2L42,78.2L42,78.2z M74.6,73.2L74.6,73.2c-0.1-0.1-0.1-0.1-0.1,0C74.5,73.2,74.5,73.3,74.6,73.2
	C74.5,73.3,74.5,73.3,74.6,73.2 M48.5,72.9C48.5,72.9,48.5,72.8,48.5,72.9c-0.1-0.1-0.1-0.1-0.1,0S48.3,72.9,48.5,72.9
	C48.5,72.9,48.4,72.9,48.5,72.9 M48.8,93L48.8,93c-0.1-0.1-0.1-0.1-0.1,0s0,0,0,0.1L48.8,93 M44.3,93L44.3,93l0-0.1L44.3,93L44.3,93
	 M44.8,91.9L44.8,91.9L44.8,91.9L44.8,91.9z M48.3,89.5L48.3,89.5L48.3,89.5L48.3,89.5z M48.3,94.9L48.3,94.9L48.3,94.9L48.3,94.9z
	 M43.4,94.8L43.4,94.8L43.4,94.8L43.4,94.8z M74,93.8L74,93.8L74,93.8z M74.4,83L74.4,83L74.4,83L74.4,83z M47.9,82.3L47.9,82.3
	L47.9,82.3z M48.5,80C48.5,80,48.5,79.9,48.5,80c-0.1-0.1-0.1-0.1-0.1,0S48.4,80.1,48.5,80C48.5,80.1,48.5,80.1,48.5,80 M48.7,88
	L48.7,88c-0.1,0.1-0.1,0.1,0,0.1s0,0,0.1,0L48.7,88 M48.2,88L48.2,88c-0.1,0-0.1,0-0.1,0.1s0,0,0.1,0.1L48.2,88 M48.4,85.9
	C48.4,85.9,48.4,85.8,48.4,85.9c-0.1-0.1-0.1-0.1-0.1,0S48.2,85.9,48.4,85.9C48.3,85.9,48.3,85.9,48.4,85.9 M48.4,85.3
	C48.4,85.3,48.4,85.3,48.4,85.3c-0.1,0-0.1,0-0.1,0.1L48.4,85.3L48.4,85.3z"/>
<path id="_Compound_Path_5" class="st0" d="M172.9,104c0.2,0.3,0.3,0.6,0.5,0.9c0.4,1.2,0.7,2.4,1.1,3.6c0.5,1.7,0.9,3.3,1.3,5
	c0.2,0.7,0.3,1.3,0.5,2.1c-2.5,0.5-5,0.1-7.6,0.2L163.3,97h-8.8l-1,0.6l-6.2,18c-2.4,0.2-4.9,0.3-7.4,0.1c0-0.3,0-0.6,0-0.9
	c0.7-2,1.4-4,2.1-6c0.4-1.2,0.9-2.4,1.3-3.6s0.8-2.5,1.2-3.7c0.3-1,0.6-1.9,1-2.9c0.2-0.5,0.3-1,0.5-1.6h-4.7
	c-0.3-0.8-0.4-1.7-0.2-2.5c0-0.9,0-1.8,0.1-2.7c0.1-0.8-0.3-1.7,0.2-2.5h7.3c0.7-1.3,1.2-2.6,1.6-4c0.3-0.9,0.5-1.8,0.8-2.7
	c0.6-1.8,1.2-3.5,1.8-5.3c0.5-1.6,1.1-3.1,1.6-4.7c0.4-1.3,0.8-2.6,1.2-3.9c0.2-0.6,0.5-1.2,0.9-1.9l0.5,0.3l2.2-0.2
	c0,0,0-0.1,0-0.1l1.7,0.4v0.1l1.3-0.2c0.2,0.5,0.4,0.9,0.5,1.3c0.4,1.3,0.9,2.6,1.3,3.9s0.8,2.7,1.2,4.1c0.3,1.1,0.7,2.3,1.1,3.4
	c0.4,1.4,0.8,2.9,1.2,4.3c0.5,1.7,1,3.3,1.5,5c1.8,0.3,3.5,0.4,5.3,0.3c0.6,0,1.1,0.1,1.9,0.2c-0.1,2.3-0.1,4.6-0.2,6.9
	c-1.4,0.6-2.8,0.2-4.3,0.4c0.1,0.9,0.2,1.8,0.3,2.7c0.3,1.2,0.7,2.4,1,3.7c0,0.3,0.1,0.5,0.1,0.8l0,0L172.9,104z M169.8,103.1
	L169.8,103.1L169.8,103.1l-0.2-0.2l-0.1,0.1L169.8,103.1 M160.9,89.2c0-0.3,0-0.5,0-0.8c-0.5-1.7-0.9-3.4-1.4-5.1
	c-0.1-0.2-0.3-0.4-0.6-0.7c-1.1,2.1-1.7,4.3-2,6.6H160.9z M155.4,95.6c0.5-0.4,0.5-0.4,0.4-1L155.4,95.6 M147.3,106.7l-0.1-0.8
	l-0.5,0.7L147.3,106.7 M146.6,102.3v0.2l0.8-0.1v-0.2L146.6,102.3z M156.3,95.9l-0.2-0.2l-0.3,0.5l0.2,0.1L156.3,95.9 M146,106.4
	c-0.2,0.4-0.2,0.4,0.1,0.4L146,106.4 M169,102.3c0.3,0.4,0.4,0.3,0.6-0.1L169,102.3 M172.3,113.6l-0.1-0.2l-0.2,0.2l0.1,0.2
	L172.3,113.6 M152.2,83.7l-0.2,0.2l0.3,0.2l0.1-0.1L152.2,83.7 M171.1,113.7h0.1v-0.4c-0.1,0.1-0.3,0.1-0.3,0.2
	S171,113.6,171.1,113.7 M163.1,95.6l-0.6,0.1l0.4,0.3L163.1,95.6 M169.8,103.7L169.8,103.7c0-0.1-0.1-0.2-0.1-0.2
	c-0.1,0-0.2,0.1-0.2,0.1L169.8,103.7 M146.8,105.7l-0.1,0.2l0.3,0.1l0.1-0.1L146.8,105.7 M149.7,106.8v-0.1l-0.3,0.1v0.1
	L149.7,106.8 M163.5,95.4l-0.3-0.1l-0.1,0.4L163.5,95.4 M152.4,83.4l-0.1-0.1c0,0,0,0.1,0,0.1L152.4,83.4 M171.4,113.9L171.4,113.9
	L171.4,113.9z M157.6,79.1L157.6,79.1L157.6,79.1L157.6,79.1z M145.9,93.5L145.9,93.5L145.9,93.5L145.9,93.5z"/>
<path id="_Compound_Path_6" class="st0" d="M137.2,86.6c0.1,0.5,0.1,0.9,0.2,1.4c0,0.7,0,1.4,0,2.1c0,0.3,0.1,0.7-0.3,1
	c-0.2,0.1-0.1,0.6-0.1,0.9c0,2.1,0,4.2,0,6.4c0,0.2,0,0.5-0.1,0.6c-0.4,0.3-0.2,0.7-0.2,1c0.1,0.6,0.1,1.2,0.3,1.7
	c0.1,0.3,0.2,0.7,0.3,1c-1,0.6,0.6,1.2,0.1,1.9l-0.6,0.4v7.7l-0.9,0.4l1,0.5l-0.2,1.8h-7.5c0-1.2,0-2.3,0-3.4c0-1.7,0-3.4,0-5.1
	c0-0.4,0.1-0.9,0.1-1.3c0-1.9,0.1-3.8,0.1-5.7c0-2.2,0-4.3,0-6.5c0-1.9,0.1-3.7,0.1-5.6s-0.1-3.6,0-5.3c0-1.6,0.2-3.1,0.2-4.6
	c0-1-0.1-2.1-0.1-3.1c0-1.7,0-3.4-0.1-5.1c0-0.6-0.1-1.1-0.1-1.7c0-0.3,0.1-0.5,0.1-0.7h3.7c0.4,0,0.7,0,1.1,0
	c0.8-0.1,1.7,0,2.5,0.4c0.4,1.1-0.3,2.4,0.6,3.5l-0.3,0.3c-0.3,1.5,0.1,3-0.4,4.4l0.8,0.1c-0.1,0.1-0.2,0.2-0.2,0.3
	c-0.6,0.4-0.6,0.6,0,0.9c0,0.1-0.1,0.1-0.1,0.2c-0.1,0.1-0.2,0.1-0.2,0.2l0.5,0.8c-0.1,0.1-0.3,0.2-0.3,0.4s0.2,0.3,0.5,0.5
	c-0.2,0.6-0.3,1.2-0.4,1.8c0,0.7,0,1.4,0.1,2.1c0.1,0.7,0.1,1.4,0.1,2.1l-0.2-0.7c-0.2,0.7-0.3,1.2,0.2,1.7
	C137.2,86.2,137.2,86.5,137.2,86.6C137.2,86.5,137.2,86.4,137.2,86.6L137.2,86.6 M137.1,88.1H137v2.3h0.1V88.1z M131.2,100.9
	l0.3-0.1c0.1-0.3-0.2-0.5-0.3-0.7l-0.2,0.1L131.2,100.9 M130.9,92v0.2l0.4-0.1c0-0.1,0-0.1,0-0.2L130.9,92z M137,80.2
	c0-0.1,0.4-0.6-0.2-0.4L137,80.2 M135.8,106l0.1,0.2l0.3-0.2l-0.1-0.1L135.8,106 M137.1,104.2L137.1,104.2l-0.1,0.3h0.1L137.1,104.2
	 M130.9,103.5c0,0,0,0.1,0,0.1h0.3v-0.1L130.9,103.5z M132.9,75.1L132.9,75.1L132.9,75.1L132.9,75.1z M135.4,100.3L135.4,100.3
	L135.4,100.3L135.4,100.3z M135.1,77.1L135.1,77.1L135.1,77.1L135.1,77.1z M132.5,71.9L132.5,71.9c-0.1-0.1-0.1-0.1-0.1,0
	S132.4,71.9,132.5,71.9L132.5,71.9 M136.7,90.3L136.7,90.3L136.7,90.3L136.7,90.3z M134.2,81.7C134.2,81.7,134.2,81.7,134.2,81.7
	c-0.1,0-0.1,0-0.1,0.1L134.2,81.7L134.2,81.7 M137,79.4L137,79.4L137,79.4z"/>
<path id="_Path_82" class="st1" d="M81.8,30.7l0.3,0.7c0-0.2,0.1-0.4,0.1-0.5C82.1,30.8,82,30.7,81.8,30.7"/>
<path id="_Path_85" class="st1" d="M104.9,14.6L104.9,14.6h0.8C105.5,14.5,105.2,14.5,104.9,14.6"/>
<path id="_Path_87" class="st1" d="M82.1,42.7c-0.2-0.1-0.3-0.2-0.3,0l0.1,0.1c0,0.1,0.1,0.2,0.2,0.3l0.3,0.4c0-0.1,0-0.3,0-0.4
	l-0.1-0.2L82.1,42.7"/>
<path id="_Path_88" class="st1" d="M84.8,22v0.4c0,0.2,0,0.4,0,0.4l-0.2,0.1c0,0.5,0,1,0.2,1.4c0.2-0.4,0.3-0.8,0.4-1.1
	C85.1,22.7,84.9,22.4,84.8,22"/>
<path id="_Path_89" class="st1" d="M86.8,18.7l-0.2-0.2l0.3,0.2c0.2-0.2,0.3-0.4,0.5-0.6c0,0-0.1,0-0.1,0c-0.3,0.1-0.6,0.2-0.8,0.4
	c-0.2,0.2-0.4,0.3-0.6,0.5c0.1,0.2,0.3,0.4,0.5,0.5c0.1-0.2,0.3-0.5,0.4-0.7L86.8,18.7"/>
<path id="_Path_90" class="st1" d="M83.2,24.9c-0.1,0.1-0.1,0.2-0.2,0.2c-0.1,0.2-0.2,0.3-0.3,0.5H83C83.1,25.4,83.1,25.2,83.2,24.9
	"/>
<path id="_Path_91" class="st1" d="M82.1,42.4c-0.1,0-0.1,0.1-0.1,0.2l0.1,0.1l0.1,0.1L82.1,42.4"/>
<path id="_Path_92" class="st1" d="M89.6,16.1c-0.2,0.1-0.3,0.3-0.3,0.5l0.5-0.3C89.7,16.2,89.6,16.1,89.6,16.1"/>
<path id="_Compound_Path_7" class="st1" d="M95.9,14.7c0.3,0,0.6,0,0.9-0.1l-0.3,0h-0.3c0.4,0,0.8,0.2,1.5,0.1
	c-0.1-0.2,0.4-0.5-0.2-0.7c-1.3-0.3-1,0.5-2.6,0.6c-0.1,0.1,0.3-0.4-0.5-0.2c-0.5,0.1-1,0.4-1.4,0.8c1-0.2,2.1-0.3,3.2-0.4
	C96.1,14.7,96,14.7,95.9,14.7 M94.3,14.9c-0.2,0.1-0.4,0-0.3-0.1l0.6-0.1C94.7,14.7,94.4,14.8,94.3,14.9"/>
<path id="_Path_93" class="st1" d="M107.9,13.8C107.9,13.8,107.9,13.7,107.9,13.8C107.8,13.7,107.6,13.7,107.9,13.8"/>
<path id="_Path_94" class="st1" d="M97.6,13.5C97.3,13.5,97.2,13.4,97.6,13.5L97.6,13.5"/>
<path id="_Path_95" class="st1" d="M117.3,49.1l0.2-0.1C117.4,48.9,117.4,48.8,117.3,49.1"/>
<path id="_Path_96" class="st1" d="M82.4,41.7c0,0.2,0,0.3,0.1,0.5C82.5,41.9,82.5,41.8,82.4,41.7"/>
<polyline id="_Path_97" class="st1" points="109.4,54.4 109.3,54.4 109.3,54.4 109.4,54.4 109.4,54.4 "/>
<path id="_Path_98" class="st1" d="M82.4,42.9c0-0.1,0.1-0.2,0.1-0.4c-0.2-0.1-0.3-0.2-0.4-0.1s0.1,0.3,0.2,0.4L82.4,42.9"/>
<path id="_Path_100" class="st1" d="M90.6,51c0.1,0.2,0.2,0.5,0.5,0.4C91.1,51.2,90.8,51.1,90.6,51"/>
<polyline id="_Path_101" class="st1" points="109.3,54.3 109.3,54.3 109.3,54.3 109.3,54.3 109.3,54.3 "/>
<path id="_Path_102" class="st1" d="M109.2,54.1L109.2,54.1L109.2,54.1L109.2,54.1L109.2,54.1L109.2,54.1L109.2,54.1L109.2,54.1
	l-0.1-0.1L109.2,54.1z"/>
<path id="_Path_105" class="st1" d="M109.2,54.2L109.2,54.2L109.2,54.2l-0.2,0.2l0.2-0.1h0.1l0,0L109.2,54.2L109.2,54.2"/>
<path id="_Path_112" class="st1" d="M82.2,42.9l0.1,0.2V43L82.2,42.9"/>
<path id="_Compound_Path_8" class="st1" d="M99.7,14.8c-1-0.2-2.8,0-3.5-0.1c-1.1,0.1-2.1,0.2-3.2,0.4c-0.1,0.1-0.2,0.3-0.2,0.5
	c0.2-0.1,0.5-0.2,0.8-0.3c0.3-0.1,0.5-0.1,0.6,0c-0.2,0.1-0.5,0.2-0.7,0.3s-0.4,0.2-0.4,0.3c-0.5-0.3,0.8-0.2,0.1-0.4
	c-0.2,0.1-0.4,0.2-0.5,0.3c0.2-0.2-0.3-0.2-0.4-0.2c-0.5,0.1-0.9,0.2-1.2,0.3l-0.6,0.2l-0.6,0.3c0,0,0.1,0,0,0l0,0h-0.1l-0.5,0.3
	c0,0.1-0.1,0.2-0.1,0.3c-0.1,0.3-0.1,0.5,0.1,0.5c-0.2,0.1-0.3,0.2-0.5,0.3c-0.2,0.1-0.3,0.2-0.4,0.4c0.8-0.3-0.1,0.1,0,0.4
	c-0.3,0.4-0.2,0-0.4,0.1c0,0.1-0.1,0.3,0,0.4c0.1,0,0.2-0.1,0.3-0.1c-0.2,0.1-0.2,0.2-0.3,0.1s-0.2-0.2-0.3-0.4s0-0.3-0.2-0.4
	c-0.2,0.2-0.4,0.4-0.5,0.6l0.1,0.1L87,18.9l-0.1-0.1c-0.2,0.2-0.3,0.4-0.4,0.7c0.4,0.2,0.8,0.3,1.2,0.3c0.2,0.1-0.4,0.2-0.5,0.4
	c-0.2,0.2-0.3,0.4-0.3,0.7c0,0.3,0,0.5-0.1,0.8v-0.5c-0.2,0.3-0.2,0.7-0.2,1c-0.1,0-0.4-0.6-0.6-0.4c-0.2,0.4-0.2,0.9-0.1,1.4
	c0,0.4,0.2,0.7,0.3,0.7v-0.2c0-0.2,0.1-0.3,0.1-0.5l0.1-0.8c0.3,0-0.1,1.2,0.3,1.2L86,24.9c0.1-0.2,0.2-0.7,0-0.6
	c-0.2,0.6-0.2,0.3-0.4,0.6c-0.1-0.6-0.2-1.2-0.3-1.8c-0.1,0.4-0.3,0.8-0.4,1.1c0.2,0.5,0.4,0.9,0.5,1.1c-0.3,0.5-0.8,0-0.8-0.1
	c-0.4,1,0.3,1.3-0.1,2.3l0.3-0.3c0,0.2-0.5,1-0.3,1c-0.2,0.1-0.6,0.2-0.7-0.1l0.2,1.1c0-0.2-0.5-0.2-0.6-0.3
	c-0.2,0.4,0.3,0.8,0.5,0.6c-0.6,0.6-0.3,0.5-0.9,0.9c0,0.2,0.5,0.1,0.6,0c0,0.3-0.1,0.7-0.3,1l0,0l0,0c-0.2,0.2-0.2,0.5,0,0.8
	l-0.7-0.7l0.7-0.1l0,0c0-0.6-0.5-0.6-0.9-0.6c-0.1,0.2-0.1,0.4-0.1,0.5l0.2,0.4l0.3,0.7l0.2,0.3c-0.2-0.1-0.4-0.2-0.6-0.3
	c0.2,0.1,0.2,0.7,0.2,1.3s-0.1,1.4-0.2,1.8v-0.2c-0.1-0.2-0.3,0.6-0.2,1c-0.1-0.1-0.1-0.1,0-0.3c-0.1,0.2-0.1,0.6,0.1,0.8
	c0.2,0.2,0.3,0.4,0.1,0.8c0-0.6-0.1-0.7-0.3-0.7c0.2,0.5,0,1.6,0.5,1.4c-0.1,0.3,0,0.6-0.2,0.6l0.2,0.6l0.1,0.4l0.1,0.2
	c-0.1-0.1-0.2-0.1-0.2,0.2c-0.1-0.3-0.2-0.6-0.3-0.9c-0.1-0.3-0.2-0.5,0-0.7c-0.3,0-0.4,0.3-0.8,0c0.1,0.6,0.3,1.1,0.6,1.6
	c0.3,0.4,0.6,0.7,0.8,1l0.1,1.1h0.2l-0.3,0.3c0.1,0.1,0.2,0.2,0.2,0.2s-0.1,0-0.2,0c0.1,0.1,0.1,0.2,0.2,0.2c0,0,0.1-0.1,0.1-0.1
	c0,0.1,0,0.2-0.1,0.1c-0.2,0.1-0.4,0-0.7-0.1v0.1c0.5,0.4,1,0.8,1,0.3L83.4,43c0,0.1,0.1,0.3,0.1,0.5v0.3V44v0.1
	c0.4,0.2,0.5,0.3,0.6,0.5s0.3,0.3,0.7,0.6c-0.1,0.1-0.3,0-0.3,0.2c0.3,0.2,0.6,0.5,0.7,0.9c0.1,0.3,0.2,0.6,0.4,0.6
	c0.4,0.3,0.4,0,0.7,0.1c0,0-0.1,0-0.1,0.1l0.5,0.1c0.1,0.2-0.4-0.2-0.1,0.3c0.6,0.3,1.2,0.7,1.6,1.3c0.8,0.7,0-0.7,0.6,0
	c-0.1,0.3,0,0.7,0.2,0.9c0.3,0.1,0.4-0.1,0.8,0.2L89.6,50c0.3,0.3,0.6,0.5,0.5,0.7c0.3,0.1,0.5,0.3,0.6,0.5c0.6,0.3,0.1-0.8,0.1-1
	c0.3,0.6,0.7,0.8,0.8,1.4L90.9,51c0.6,1.1,1.2,0.5,1.1,1.4c-0.3-0.3-0.8-0.5-0.7-0.2l0.6,0.3c0,0.1-0.3-0.2-0.2,0.1
	c0.2,0.1,0.5,0.2,0.7,0.2h0.1c0,0,0,0.1-0.1,0l0,0l0.4,0.3l0.3,0.2l0.1,0.1l0,0l0,0c-0.1-0.1-0.2,0-0.1,0.1l0.6,0.2l0.2,0.1
	l-0.2-0.1c-0.2,0-0.1,0.2,0.1,0.4c0.7,0.5,0.9-0.3,1.4,0.3c-0.1-0.1-0.1,0-0.2-0.1l0.2,0.3c0.2-0.3,0.6-0.1,1.1,0s1,0.3,1.1,0
	c0.4,0.4,0,0.2-0.7,0.3l0.4,0.3c-0.2-0.1-0.4-0.1-0.6-0.2c0.3,0.2,0.6,0.3,0.9,0.3c0.3,0,0.5,0,0.8-0.1c0.2,0.2-0.3,0.4,0.4,0.5
	c1.1,0.1-0.1-0.5,0.6-0.5l0.4,0.4c0.4,0,0.8,0,1.2,0.1l0.5,0.2l0.4,0.1c0.1,0,0.2,0,0.2-0.1l0,0l0,0c0-0.1-0.1-0.2,0.2-0.2l-0.2,0.2
	l0,0l0.2,0.1h0.2c0.2,0,0.3-0.1,0.5-0.1c0.3-0.1,0.5-0.2,0.8-0.3c-0.1,0.1,0.3,0.2,0.4,0.2l0.4-0.2l0.3-0.2l0.1-0.1
	c-0.4,0.2-0.3,0.4-0.3,0.6c0.2-0.1,0.4-0.2,0.6-0.4c-0.1,0.1-0.2,0.2,0,0.3l0.4-0.3c0.2-0.2,0.4-0.4,0.4-0.4c-0.1,0-0.2,0-0.3,0.1
	c0.3-0.2,0.7-0.4,1.1-0.5c0,0.1-0.1,0.2-0.1,0.3c-0.4-0.1-0.5,0.2-0.6,0.4c0.7-0.3,0.2,0,0.6-0.1c0.5-0.2,0.5-0.6,0.3-0.7
	c0.5-0.1,0.9-0.4,1.2-0.7v0.3l0.2-0.2l0.1-0.1l0,0v0.1l0,0l0.1,0.2l0,0l0,0l0,0c0-0.1,0-0.1-0.1-0.2c0,0-0.1-0.1-0.1-0.2
	c0,0,0-0.1,0-0.1l0,0l0,0h0.1c-0.1-0.1-0.1-0.2-0.2-0.3c-0.1-0.2-0.1-0.5,0-0.7c0-0.4-0.2-0.1-0.2,0.1c-0.1,0.2-0.1,0.2-0.1,0.1
	c0-0.3,0-0.5,0.1-0.8c0.3-0.4,0.6-0.8,1-1.1c0.2-0.2,0-0.2-0.2-0.1c-0.2,0.1-0.3,0.2-0.4,0.4l-0.1,0.2c0-0.1,0.1-0.1,0.1-0.2
	c0.2-0.4,0.6-0.7,1-0.8c0.2-0.1,0.5-0.1,0.7-0.1c0.2,0,0.3,0,0.5,0c0.3,0,0.5-0.1,0.7-0.3c-0.2,0-0.2-0.1-0.2-0.2s0-0.1-0.1-0.1
	c-0.2,0-0.4,0.1-0.5,0.2c0.2-0.1,0.5-0.2,0.8-0.2c0.3,0,0.5-0.1,0.7-0.3l-0.2,0.4c0.2-0.1,0.3-0.2,0.4-0.3l0.1,0.2
	c0.2-0.3,0.5-0.4,0.8-0.5c0.2-0.1,0.5-0.2,0.5-0.6c0,0.5,0.4-0.3,0.7-0.3c-0.2,0.6-1.3,0.9-1.1,1.2c0.3,0,0.4-0.3,0.7-0.3
	c0.1-0.1,0.2-0.2,0.1,0h-0.1c-0.1,0.1-0.2,0.3-0.3,0.5c0.2-0.1,0.4-0.2,0.5-0.3c0.1-0.1,0.2-0.2,0.3-0.4c0.2-0.2,0.3-0.5,0.4-0.7
	l-0.3,0.3l-0.3,0.3c-0.2-0.4,0.3-0.3,0.3-0.7c0.2-0.1,0.4-0.2,0.5-0.4c0.1-0.2,0.2-0.3,0.4-0.4c-0.1,0.1,0,0.1-0.1,0.2
	c0.1-0.1,0.2-0.2,0.2-0.2c0.1-0.1,0.1-0.1,0.2-0.2c0.1-0.1,0.3-0.2,0.4-0.2c0.2-0.1,0.5-0.2,0.7-0.4c0.3-0.3,0.7-1.1,0.4-1
	c0.1-0.2-0.2,0.1-0.4,0.4s-0.5,0.5-0.5,0c0.4-0.1,0.6-0.4,0.9-0.8c0.1-0.2,0.3-0.4,0.5-0.6c0.1-0.1,0.2-0.2,0.4-0.3
	c0.1-0.1,0.2-0.1,0.3-0.1c-0.1,0.2,0,0.2,0.1,0.2s0.2,0,0.1,0.2c0.4-0.3,0.3-0.4,0.3-0.5h0.2h0.2c0-0.1,0-0.2-0.1-0.3
	c-0.1,0-0.1-0.1-0.1-0.2c0,0,0-0.1,0-0.1c0,0,0-0.1,0-0.1l-0.2-0.1c0.2,0.1,0.2,0,0.3,0s0-0.1,0.2-0.1c-0.1-0.1-0.2-0.2-0.4-0.2
	c-0.1,0-0.2-0.1-0.2-0.1l0,0c-0.1-0.1-0.2-0.1-0.3-0.2l-0.1-0.1l-0.1-0.1c-0.1-0.2-0.3-0.4-0.5-0.5l-0.9-0.7l1.1-0.6l0.3-0.2
	l-0.1-0.1c0.4-0.3,0.7-0.7,0.7-1.2c0-0.2,0-0.4,0.1-0.6l0.1-0.6c0-0.4,0.1-0.9,0.1-1.4c0,0-0.2,0.7-0.2,0.7s0-0.4,0.1-0.8
	c0.1-0.4,0.2-0.7,0.4-1c0.1-0.1,0.2-0.2,0.2-0.2l0.1-0.1l0,0l-0.1,0.1l-0.2,0.2c-0.1,0.1-0.1,0.2-0.1,0.3c0.1,0,0.2,0,0.3-0.1
	c0.2-0.1,0.3-0.2,0.4-0.4h0.1l-0.1-0.2h0.2c0.4-0.4-0.3-0.1,0-0.4c0.1,0,0.3-0.1,0.4-0.2c0.2-0.2,0.3-0.4,0.4-0.6
	c0.2-0.5,0.3-1,0.5-1.2c-0.2-0.2-0.2,0.1-0.3,0.3s-0.1,0.4-0.2,0.2c0.1-0.1,0.2-0.3,0.2-0.5l-0.2,0.1c0.1-0.3,0.1-0.7,0.1-1
	c0-0.1,0-0.3,0-0.4V31c0-0.2,0-0.5,0-0.7c0-0.1,0-0.2,0-0.2c0,0,0-0.1,0-0.2s0-0.5-0.1-0.8l0.1,0.1c0.1-0.6-0.1-0.8-0.3-1
	c0.1-0.1,0.2,0.2,0.3,0c-0.2-0.2-0.3-0.4-0.3-0.6c0-0.2,0-0.5,0-0.7c0-0.5,0.1-0.9-0.2-1.1c0.2,0,0.4-0.3,0.5-0.6
	c-0.1-0.4-0.2-0.8-0.4-1.2c-0.9-1-1.6-1.8-2.5-2.7c-0.7-0.9-1.5-1.7-2.3-2.4c-1.3-0.9-2.7-1.6-4.2-2.3c-1.8-0.9-3.8-1.5-5.8-1.8
	c-0.1,0-0.1,0-0.2,0h-0.1l-0.6-0.1h-0.1h-0.1h-0.7h-0.1c-0.1,0-0.2,0.1-0.2,0.2s0-0.1,0-0.2h0.3l-0.5,0.1c0,0,0-0.1,0-0.1h-1h-0.1
	c-1,0-2,0-3,0c0,0.1-0.3,0.1-0.4,0.2 M85.2,26.7c-0.4,0-0.2-0.1-0.2-0.6c0-0.1,0-0.2,0-0.2c0,0.1,0,0.2,0,0.2c0,0.2,0.3-0.4,0.3-0.2
	C85,26.4,85.6,26.1,85.2,26.7 M90.1,49.7L90.1,49.7l0.2,0.4C90.2,49.9,90.1,49.8,90.1,49.7 M96.4,15.2l-0.3,0.1V15
	C96.2,15.1,96.3,15.1,96.4,15.2 M94.7,15.4c0.6,0,0,0.1-0.1,0.2C93.9,15.7,94.6,15.5,94.7,15.4 M94.3,53.9v-0.2c0-0.1,0-0.2,0-0.2
	l0.1,0.1L94.3,53.9z M98.3,54.8c0.2,0.1,0.4,0.1,0.6,0.1C99,55.3,98.8,54.8,98.3,54.8 M108.3,40.9c-0.4,0.8-0.4,2-1.4,2.8
	c1.4,0.1,2.5,0.8,3.8,0.6c0.5-0.1,1.6,0,1.4,1.3c-0.3,0.5-0.9,0.5-1.4,0.6c-0.6,1.3-0.5,2.9-2.2,3.6c-2.1-0.8-4.3-0.6-6.4,1.6
	c-1.1-2.3-2-4.3-1.9-6.6c0.2-0.3,0.6-0.2,0.9-0.3c0.7,2.2,1.1,2.3,3.7,1.5v-1c-0.8,0.1-1.6,0.5-2.1,1.1c-0.3-1.7-0.2-1.7,1.4-1.7
	c0.9-0.1,1.7-0.3,2.6-0.5v-3c-0.5-0.2-1-0.3-1.5-0.1c-0.1,1,0.5,2.2-1.1,2.7c-1.4-0.3-0.7-1.6-1.1-2.5c-1.3,0.6-2.4,1.5-3.2,2.6
	l-1.4,0.1c-0.1,2.3,0.5,4.7-1.2,6.9c-1.6,0.7-3.3,0.2-4.9-1c1.3-0.6,3.1,0.5,4.4-1.1v-4.4c-1.4,0.4-1.4,0.4-3.3,2.5
	c-0.4-0.6-0.5-1.3-0.4-2c1.1-1,2.6-1.3,4-1.9c0.2-0.5,0.3-1,0.1-1.5c-1.1,0.2-1.8,1-2.8,1.3c-0.9-0.4-0.7-1.1-0.7-1.7
	c1-1.8,2.9-0.6,4.3-1.2c-0.6-1.4-0.3-2.3,1.1-2.7c0.7,0.8,0,1.5,0.1,2.2c0.6,0.3,1.5,0.3,1.4,1.4l2.8-0.7c0.2-0.4,0.3-0.9,0.2-1.4
	c-0.2-0.4-0.8,0-0.9-0.5c0.2-0.6,0.7-0.8,1.2-0.7c1.5,0.2,1.3,1.2,1,2.4h2.4l0.7-1.5c-0.2-0.5-0.8-0.1-1-0.5c0-0.3,0.2-0.5,0.5-0.6
	c0.7-0.1,1.4-0.4,1.8,0.6l-0.6,2c1.7,0.5,3.5,0.1,5.3,1c-1.9,1.2-3.7,0.7-5.5,0.4 M95.8,30.6c0.7-0.9,1.4-0.3,2.1,0.1
	c0.1,1.3,0.4,2.6-1.7,3.2l1.1-2.6C96.9,30.9,96.1,31.4,95.8,30.6 M106.9,29.8c2,0.9,2,0.9,0.9,3.8C106.8,32.6,107,31.3,106.9,29.8
	 M102.3,14.6l0.2,0.1l-0.6-0.1L102.3,14.6z M101.4,17.5l1.3,0.3l0.1,1.4c1.8,0.8,4.1-0.2,5.5,1.8c-1.6,0.8-3,0.3-4.4-0.1
	c-0.8-0.2-1.6-0.2-1.5,1.1c1.4,0.6,3.2-0.4,4.6,1c-1.6,1.3-3.4-0.7-5.2,0.7c4,0.3,7.9,1.3,11.6,2.9c-3.8,1.2-6.8-2.1-10.8-1.6
	l-1.8,1.5c1.6,0.4,1.6,0.4,2.6,0c-0.2-0.3-0.7-0.3-0.8-0.8c0.6-0.6,1.3-0.3,2-0.3c-0.1,2.1-1.9,2.6-3.4,3.8l2.3-0.2
	c0.4-0.3-0.1-0.8,0.4-1c0.9-0.2,1.8,1.2,2,2.9c-1.2,0.3-1.7-1.7-2.8-0.9c-1.1,2,0,4.3-1.4,6.3c-1.3-1.9-0.2-4-0.7-5.8
	c-0.8-0.2-1.5,0.3-2.4,0.3c0-1.4,1-2,2.2-2.7c-0.8-0.3-1.7-0.3-2.5,0c-0.4-2,1.5-2.2,2.9-3.1c-3.8-0.5-6.7,1.8-9.9,2
	c2.6-2.6,6.3-2,9.2-3.5c-2-0.9-3.4,0.9-5.4,0.8c0.4-1.5,1.4-1.6,2.6-1.7c1.1,0,2.1-0.4,2.9-1.1c-1.4,0.1-2.9-0.1-4.2,0.7
	c-1.1-0.9-0.4-1.7-0.3-2.4c1.4-1.5,3,0.1,4.6-0.4C100.4,18.6,100.3,17.7,101.4,17.5"/>
<path id="_Path_113" class="st1" d="M98.3,42.1l1.4,0.1c0.2-0.6,0.1-1.3-0.3-1.8C98.2,40.4,98.2,41.1,98.3,42.1"/>
<path id="_Path_114" class="st1" d="M103.6,48.9c1.1-0.3,1.1-0.3,0.9-1.6C103.2,47.5,103.2,48.1,103.6,48.9"/>
<path id="_Path_116" class="st1" d="M106.8,47.4c-0.1,0.4-0.3,0.8,0.1,1.1h1.6c0.2-0.4,0.5-0.7,0.3-1.2
	C108.1,47.2,107.4,47.3,106.8,47.4"/>
<path id="_Path_117" class="st1" d="M109.8,45.8c-0.5-0.9-1.7-1.4-2.7-1l-0.4,1.2C107.8,45.9,108.7,46.2,109.8,45.8"/>
<path id="_Path_118" class="st1" d="M109.3,54.3L109.3,54.3L109.3,54.3L109.3,54.3L109.3,54.3"/>
<path id="_Path_119" class="st1" d="M122.8,23c-0.3-0.2-0.3,0.1-0.3,0C122.6,23.2,122.7,23,122.8,23"/>
<polygon id="_Path_120" class="st1" points="119.9,20.8 119.4,20.6 119.8,20.8 "/>
<path id="_Path_121" class="st1" d="M118.1,19.1c0.3,0.2,0.5,0.4,0.7,0.7v0.1h0.4c-0.3-0.3-0.6-0.5-0.9-0.8l-0.4-0.4
	c-0.1-0.1-0.2-0.2-0.4-0.3C117.6,18.7,117.9,18.9,118.1,19.1"/>
<path id="_Path_122" class="st1" d="M116.8,17l-0.3-0.2C116.5,17,116.1,16.7,116.8,17L116.8,17"/>
<path id="_Path_123" class="st1" d="M116.8,17C117.1,17.2,116.6,16.8,116.8,17"/>
<path id="_Path_124" class="st1" d="M115.6,16.4l0.2,0.1c0-0.1-0.4-0.3-0.2-0.3c-0.4-0.1-0.4,0-0.2,0.2L115.6,16.4z"/>
<path id="_Path_125" class="st1" d="M114.8,16.4l0.2,0.1C115.1,16.4,115,16.3,114.8,16.4"/>
<path id="_Path_126" class="st1" d="M115.3,16.5c-0.1,0.1,0,0,0.3,0.1L115.3,16.5l-0.2-0.1C115.1,16.5,115.1,16.6,115.3,16.5"/>
<path id="_Path_127" class="st1" d="M115.8,17c0.8,0.4,0.8,0.1,0-0.3C115.9,16.9,116.2,17.1,115.8,17"/>
<path id="_Path_128" class="st1" d="M117.8,19.1c-0.1,0-0.5-0.5-0.5-0.4l0.2,0.3L117.8,19.1z"/>
<path id="_Path_129" class="st1" d="M112.9,14.9c-0.1,0.1,0.1,0.2,0,0.4l0.4,0.1C113.1,15.2,112.9,15,112.9,14.9"/>
<path id="_Path_130" class="st1" d="M113,15.3l-0.5-0.1C112.9,15.4,113,15.4,113,15.3"/>
<path id="_Path_131" class="st1" d="M115,16.7l0.4,0.1L115,16.7l-0.6-0.1l0.1,0.1L115,16.7z"/>
<polygon id="_Path_132" class="st1" points="111.4,14 110.8,14.1 111.1,14.1 "/>
<path id="_Path_133" class="st1" d="M109.8,13.8c0.2-0.1-0.2-0.3,0-0.3c-0.3-0.1-0.7-0.1-1,0c0.2,0,0.3,0,0.5,0.1
	C109.4,13.5,109.6,13.6,109.8,13.8"/>
<path id="_Path_134" class="st1" d="M108.3,13.5c0.2,0,0.3,0,0.5-0.1C108.7,13.4,108.5,13.5,108.3,13.5"/>
<path id="_Path_135" class="st1" d="M111.5,14.7l0.2,0.1c0-0.2-0.1-0.3-0.3-0.4L111.5,14.7z"/>
<path id="_Path_136" class="st1" d="M111.5,14.7L111.5,14.7c-0.1-0.1-0.3-0.1-0.4-0.2C111.2,14.6,111.4,14.6,111.5,14.7"/>
<path id="_Path_138" class="st1" d="M113.1,16.2c0.2,0,0-0.3,0.5-0.2C113.2,15.9,112.7,15.7,113.1,16.2"/>
<path id="_Path_139" class="st1" d="M112.4,15.2l-0.6-0.1l0.5,0.3C112.3,15.3,112.3,15.2,112.4,15.2"/>
<polygon id="_Path_140" class="st1" points="111.6,15.1 111.8,15.1 111.7,15 "/>
<path id="_Path_141" class="st1" d="M109.2,13.9c-0.3,0-0.5,0-0.8,0c0.3,0.1,0.6,0.2,0.9,0.2C109.4,14.1,109.5,14,109.2,13.9"/>
<polygon id="_Path_143" class="st1" points="105.6,13.5 105.6,13.5 105.7,13.5 "/>
<path id="_Path_144" class="st1" d="M109.4,14.2c0.2,0.1,0.3,0.1,0.5,0.1C109.7,14.2,109.5,14.2,109.4,14.2
	C109.3,14.1,109.3,14.1,109.4,14.2"/>
<path id="_Path_145" class="st1" d="M107.5,13.5l0.4,0.2C107.8,13.6,107.6,13.4,107.5,13.5"/>
<path id="_Path_146" class="st1" d="M110.2,14.2L110.2,14.2C110.2,14.1,110.2,14.2,110.2,14.2"/>
<path id="_Path_147" class="st1" d="M110.2,14.2c-0.1,0-0.2,0-0.3,0C110,14.2,110.1,14.2,110.2,14.2L110.2,14.2"/>
<path id="_Path_148" class="st1" d="M104.8,14.6h0.2c0.3-0.1,0.5-0.1,0.8,0h0.2c0.4-0.2,0.1-0.8-0.3-1.1c0,0.1,0,0.2-0.6,0.2
	c0.2,0.1,1.1,0.3,0.7,0.5c-0.7,0-0.6-0.1-0.9-0.2c0.2,0.2-0.6,0.3-0.7,0.6L104.8,14.6L104.8,14.6z"/>
<path id="_Path_149" class="st1" d="M104.8,14.8c0-0.1,0.1-0.1,0.2-0.2h-0.2C104.8,14.7,104.6,14.8,104.8,14.8"/>
<path id="_Path_151" class="st1" d="M104.2,14.7l0.5-0.1h-0.5C104.2,14.7,104.2,14.7,104.2,14.7"/>
<path id="_Path_152" class="st1" d="M106.7,13.6h0.2c-0.3-0.1-0.5-0.2-0.7-0.3c-0.4,0.1-0.5,0.1-0.5,0.2L106.7,13.6L106.7,13.6z"/>
<path id="_Path_153" class="st1" d="M107.4,14.2c0.6,0.1,0.5-0.1,0.9-0.1c-1-0.1,0.3-0.1-0.4-0.3c0.2,0,0.4,0,0.6,0l-0.5-0.2l0,0
	l0,0c0,0,0.1,0,0,0l0,0c0,0,0,0.1-0.1,0.1c-0.3-0.1,0-0.1,0.1-0.1l0,0l0,0h-0.5c-0.2,0-0.4,0-0.5,0l1,0.1
	C107.7,13.9,107.1,13.9,107.4,14.2"/>
<path id="_Path_154" class="st1" d="M112.4,16.4C112.4,16.3,112.4,16.3,112.4,16.4C112.3,16.3,112.3,16.3,112.4,16.4"/>
<path id="_Path_155" class="st1" d="M112.5,16.1L112.5,16.1c-0.3-0.2-0.5-0.4-0.7-0.6c0,0.2,0.1,0.4,0.2,0.6
	C112.2,16,112.3,16.1,112.5,16.1c0.1,0.2-0.1,0.2-0.2,0.2C112.5,16.3,112.9,16.4,112.5,16.1"/>
<path id="_Path_157" class="st1" d="M109.6,15v-0.1c0.4,0.2,0.4,0,0.5,0l-0.8-0.1L109.6,15z"/>
<polygon id="_Path_158" class="st1" points="105.6,13.2 105.1,13.4 105.5,13.4 "/>
<polygon id="_Path_159" class="st1" points="104.5,13.2 104.2,13.3 104.4,13.4 "/>
<path id="_Path_160" class="st1" d="M93.8,53.6l0.2,0.1L93.8,53.6"/>
<path id="_Path_162" class="st1" d="M82.5,25.7h0.2c0-0.2,0.1-0.4,0.3-0.5C82.7,25.4,82.3,25.7,82.5,25.7"/>
<path id="_Path_163" class="st1" d="M82.2,42.9L82.2,42.9l-0.1-0.2L82.2,42.9"/>
<path id="_Path_164" class="st1" d="M82.2,42.9L82.2,42.9L82.2,42.9l-0.1-0.1L82.2,42.9"/>
<path id="_Path_165" class="st1" d="M83.3,43.3c0-0.2,0-0.3-0.1-0.5L83.3,43.3z"/>
<path id="_Path_166" class="st1" d="M102.3,56l0.2-0.2C102.2,55.8,102.3,55.9,102.3,56"/>
<path id="_Path_167" class="st1" d="M93.3,13.8c-0.3,0-0.6,0-0.8,0C92.9,13.8,93.2,14,93.3,13.8"/>
<path id="_Path_168" class="st1" d="M91.9,55.1c0.2,0.1,0.2,0.1,0.3,0C92,55.1,91.9,55,91.9,55.1"/>
<path id="_Path_169" class="st1" d="M91.5,14.1h0.2c0.2-0.1,0.5-0.2,0.8-0.2C92.2,13.8,91.8,13.8,91.5,14.1"/>
<path id="_Path_170" class="st1" d="M120.5,35.4L120.5,35.4L120.5,35.4L120.5,35.4"/>
<path id="_Path_171" class="st1" d="M123.5,26.9c0-0.1-0.1-0.3-0.1-0.4C123.4,26.6,123.4,26.8,123.5,26.9"/>
<path id="_Path_173" class="st1" d="M101.1,14.2c0,0,0-0.1,0.1-0.1C101.2,14.1,101.1,14.1,101.1,14.2"/>
<path id="_Path_175" class="st1" d="M100.4,13.3l-0.3-0.1L100.4,13.3"/>
<path id="_Path_176" class="st1" d="M100.4,13.2h0.2C100.6,13.2,100.6,13.1,100.4,13.2"/>
<path id="_Path_177" class="st1" d="M100.1,13.2h-0.3C99.9,13.2,100,13.2,100.1,13.2C100.1,13.2,100.1,13.2,100.1,13.2"/>
<path id="_Path_178" class="st1" d="M114.5,49.4L114.5,49.4C114.7,49.2,114.6,49.2,114.5,49.4"/>
<path id="_Path_180" class="st1" d="M83.1,32.2c-0.2-0.2-0.2-0.5,0-0.8l-0.7,0.1L83.1,32.2z"/>
<path id="_Path_181" class="st1" d="M123.6,30.7c0-0.1,0-0.2,0-0.3c0,0,0-0.2,0-0.3s0-0.2,0-0.3c0-0.5,0-0.9,0-1.3s0-0.9,0-1.4
	c-0.1,0.5-0.1,0.2-0.2-0.1c0,0.2-0.2,0-0.3,0.1v-1.3c-0.4-0.2-0.4-1.3-0.7-1.3l0.2,0.4c-0.3-0.2-0.4,0.1-0.6,0.4
	c0.2,0.7,0.4,1.5,0.6,2.2c0.2,0.8,0.3,1.7,0.3,2.5c0,0.3,0,0.5,0,0.8c0.6,2,0,4.1-1.5,5.5c-0.4,0.7-0.7,1.6-0.6,2.5
	c-0.1,1-0.1,2-1,2.6c0.2,0.2,0.4,0.2,0.4,0c0,0.2,0.2,0.4,0.3,0.6l0.1-0.2c0.2-0.2,0.3-0.4,0.4-0.6c0.1-0.2,0.2-0.4,0.3-0.6
	c0-0.1,0.1-0.2,0.1-0.3l0.1-0.3c0.1-0.4,0.1-0.8,0.2-1.2c0.1-0.4,0.1-0.8,0.1-1.1c-0.1,0-0.2,0.2-0.3-0.1c0.1-0.1,0.2-0.2,0.3-0.3
	c0.1-0.1,0.2-0.1,0.3-0.2c0-0.1-0.3-0.3-0.1-0.4l0.2-0.1c-0.1,0-0.3,0-0.2-0.2c0.8-0.7,1.4-1.6,1.7-2.7
	C123.9,32.8,123.9,31.7,123.6,30.7"/>
<path id="_Path_182" class="st1" d="M98.4,13.6c0.1,0,0.1-0.1,0-0.1s-0.2,0.1-0.4,0.1C98,13.6,98.1,13.6,98.4,13.6"/>
<path id="_Compound_Path_9" class="st1" d="M119.8,42.1c0-0.1-0.1-0.1-0.4,0c0.3,0,0.3,0.1,0.1,0.2l1.7,1.5
	c-0.2,0.2-0.3,0.7-0.5,0.8c-1.4,0.6-2.5,1.7-3.3,3c-1.3,1.9-3.2,3.2-5.4,3.8c-1.2,0.4-2.2,0.9-1.8,2.5c0,0.4-0.2,0.8-0.6,1.1
	c-2.6,1.4-5.3,2.9-8.3,2.4c-3.5-0.7-7.2-1.4-10-4.1l-5.7-5.4c-1.4-1.3-2.6-2.9-3.3-4.7c0,0.1,0,0.3,0,0.4L82,43.1
	c-0.1-0.1-0.1-0.2-0.2-0.3l-0.1-0.1c0-0.1,0.2-0.1,0.3,0L82,42.6c0-0.1,0-0.2,0.1-0.2c-0.6-1.8-0.9-3.7-0.8-5.6
	c0.1-1.9,0.4-3.7,0.8-5.5l-0.3-0.7c0.1,0.1,0.3,0.1,0.4,0.1c0.6-1.9,1.3-3.8,2.1-5.6c0.1-0.3,0.3-0.6,0.4-0.9
	c-0.2-0.4-0.3-0.9-0.2-1.4l0.2-0.1c0,0,0-0.2,0-0.4V22c0.2,0.4,0.3,0.7,0.4,1.1c0.3-0.8,0.6-1.7,0.8-2.6c0.1-0.4,0.3-0.8,0.5-1.1
	c-0.2-0.1-0.4-0.2-0.5-0.5c0.2-0.2,0.4-0.3,0.6-0.5c0.2-0.2,0.5-0.3,0.8-0.4c0,0,0.1,0,0.1,0c0.4-0.4,0.7-0.7,1.1-1
	c0.2-0.2,0.4-0.3,0.7-0.5c0.1-0.2,0.2-0.3,0.3-0.5c0,0.1,0.1,0.1,0.2,0.1c1-0.6,2.1-0.9,3.2-1.1c0.4-0.4,0.9-0.7,1.4-0.8
	c0.8-0.2,0.4,0.2,0.5,0.2c1.6,0,1.3-0.9,2.6-0.6c0.5,0.2,0.1,0.5,0.2,0.7c-0.7,0.1-1-0.1-1.5-0.1h0.3l0.3,0
	c-0.3,0.1-0.6,0.2-0.9,0.1c0.1,0,0.2,0,0.3,0h0.5c1.2-0.1,2.3-0.1,3.5-0.1c0,0,0,0,0-0.1h-0.4c-0.4-0.2,0.7-0.3,0.2-0.4
	c0.2-0.1,0.5-0.2,0.8-0.3c0.3-0.1,0.7-0.1,1,0l0.1,0.3c0-0.1-0.5-0.2-0.7-0.1c0.3-0.1,1.1,0.4,1.4,0l-0.5-0.2
	c0.6-0.2,1.2-0.4,1.8-0.4c-0.3-0.3-0.1,0-0.6-0.3c0.4,0.5-1.6,0-1,0.4c-0.5-0.4-0.8-0.2-1.4-0.5c0,0.1,0.2,0.2-0.3,0.1
	c0,0-0.1,0.1-0.1,0.1l0,0l0,0c0.1,0,0.2,0.1,0.3,0.1c-0.3,0.2-1.1,0.3-1.4,0.4c-0.3,0,0.1-0.1,0-0.2l-0.4,0.2c0-0.2-0.9-0.4-0.1-0.5
	h-0.7c-0.4-0.1-0.9-0.1-1.3,0c-0.3,0-0.8,0.3-0.5,0.1l-1,0.2v-0.1c-0.3,0-0.5,0.1-0.8,0.1l-0.8,0.2c-0.3,0-0.6,0.1-0.9,0.2h-0.5
	c-0.2,0-0.3,0-0.5,0c-0.2,0.1-0.4,0.2-0.6,0.2c-0.3,0.1-0.5,0.2-0.8,0.3l-0.2-0.1c-0.2,0.1-0.6,0.2-0.9,0.4s-0.6,0.3-0.6,0.4
	c-0.2,0-0.5,0.1-0.7,0.2c-0.1,0.1-0.3,0.2-0.4,0.2c-0.1,0.1-0.2,0.2-0.4,0.3c-0.5,0.4-0.9,1-1.3,1.4l0.2,0.2
	c-0.5,0.5-0.8,1.2-0.9,1.9h0.2c0,0.2-0.1,0.4-0.2,0.5l-0.1,0.3l-0.1,0.3c-0.2,0.4-0.4,0.8-0.5,1.2c-0.1-0.1,0-0.3,0.1-0.4
	c-0.3,0.4-0.5,1-0.6,1.5c0,0.5-0.2,1-0.5,1.5c0,0.2-0.1,0.4-0.2,0.5c0,0,0,0,0-0.1v0.1L83.1,25c0.1-0.1,0.2-0.1,0.2-0.2
	c-0.1,0.2-0.2,0.5-0.2,0.8h-0.3v0.1c-0.2,0.2,0,0.2,0.2,0.2c0,0.1,0,0.3,0,0.4c-0.4,0.1-0.2,0.8-0.7,0.9c0.1,0.2-0.4,1.4,0,1.7
	c-0.1,0-0.1,0.1-0.1-0.1c-0.2,0.3-0.3,0.6-0.3,0.9h-0.3l0.2,0.8c-0.3,0.4-0.4,0.5-0.6,0c0,0.6,0,1.2,0.1,1.8l-0.2-0.1
	c-0.1,0.3,0.1,0.8-0.1,1c-0.2,0.2-0.3,0.5-0.3,0.8c-0.1,0.4-0.2,0.9-0.2,1.3c0,0.5-0.1,1-0.1,1.6c0,0.5-0.1,1-0.1,1.5
	c0.5-0.4-0.2,0.9,0.3,0.9c-0.1,0.1-0.2,0.4-0.3,0.1c0,0.2,0.1,0.4,0.1,0.6c0,0.2,0,0.4,0.1,0.5c0,0.3,0.2,0.6,0.4,0.9
	c-0.1,0.1-0.2-0.2-0.3,0s0.2,0.3,0.1,0.4s-0.2-0.1-0.2-0.2c0.3,1,0.8,0.9,1.2,0.8c0,0.2,0,0.4,0.1,0.6c0.1,0.2,0.2,0.3,0.4,0.3
	c0,0.2-0.1,0.5-0.3,0c0.1,0.2,0.2,0.7,0.4,1.1s0.5,0.8,0.7,0.7c0,0.1,0.2,0.4,0.3,0.5c0.3,0.4,0.6,0.8,0.9,1.2l-0.1-0.2
	c0.5,0,0.5,0.4,0.9,0.8l0,0c0.7,1.2,0.5,0.3,1.2,1.4l0.1-0.2c0.4-0.3,0.6,1,1.3,1.4l-0.1-0.3c0.4,0.2,0.3,1.3,0.6,1.6
	c0,0.1-0.1,0-0.3-0.1c0.6,1,0.3-0.1,0.9,0.4c0,0.2-0.4,0.2-0.1,0.6c0.1,0.3,1.5,0.7,1.8,1.4c0-0.2-0.1-0.4,0.3-0.2
	c0.1,0.1,0.2,0.2,0.3,0.4l0.4,0.5c0.3,0.3,0.5,0.6,0.9,0.6c0,0.1,0,0.1,0,0.1c0.2,0.1,0.6,0.2,0.9,0.4c0.3,0.1,0.5,0.2,0.8,0.2
	c0,0.2,0.2,0.4,0.4,0.6c0.3,0.1,0.6,0.2,0.9,0.3c0.6,0.2,1.2,0.2,1.1,0.6l0.7,0.2c0.3,0.1,0.7,0.2,0.7,0.2l-0.1,0.1
	c0.5,0.2,1,0.2,1.5,0c0.2,0.1,0,0.1,0,0.2c0.4,0.2,0.8,0.3,1.3,0.3c0.2,0,0.3,0,0.5,0h0.3l0.4-0.1l0.1,0.3c0.2-0.1,0.6,0.1,1.3,0.2
	c0.3,0,0.7,0,1,0c0.3,0,0.7-0.1,1-0.3c0,0.1-0.1,0.1-0.1,0.2c0.4-0.2,0.7-0.3,1.1-0.4c0.4-0.1,0.8-0.2,1.2-0.3
	c0.3-0.1,0.6-0.2,0.9-0.4c0.2-0.1,0.4-0.4,0.4-0.6l0.4-0.3l0.4-0.3c-1.1,0.5,0-0.4-0.5-0.3c0.4-0.3,1.2-0.3,0.7,0h-0.1
	c0,0.1,0.1,0.2,0.2,0.1l0.2-0.1l0.1-0.1l0.2-0.1c0.2-0.2,0.4-0.4,0.5-0.6c0.1-0.2,0.2-0.3,0.3-0.3l0.1-0.2c0-0.1,0-0.2,0-0.3
	c0-0.1,0-0.1,0-0.2v-0.1c0-0.1,0-0.2,0-0.2c0-0.1,0-0.2,0-0.2c0-0.2,0-0.3,0.1-0.5c0.1-0.1,0.2-0.3,0.3-0.3c0.2-0.1,0.3-0.2,0.5-0.2
	c0.4-0.1,1.1-0.3,1.6-0.5c0.6-0.2,1.1-0.4,1.6-0.7l-0.2-0.1l-0.2-0.1l0.4-0.2l0.4-0.2c0.2,0,0.4,0.1-0.1,0.4c0.4,0,0.7-0.7,0.7-0.8
	c0.2-0.1,0.4-0.2,0.4-0.2s0,0.1,0,0.2s-0.3,0.5-0.2,0.3s0.4-0.3,0.4-0.3h-0.1c0.1-0.4,0.3-0.7,0.6-1c0.4-0.3,0.3,0,0.4-0.1
	s0.1,0,0.2-0.2c0,0,0.1-0.1,0.1-0.1l0.2-0.3l0.3-0.4l-0.5,0.2c0.2-0.5,0.5-0.7,0-0.6c0.4-0.1,0.9-0.8,1.4-1.3c0.3-0.3,0.6-0.5,1-0.8
	l0.5-0.3l0.2-0.1l0.1-0.1c0.1-0.1,0.1-0.2,0.2-0.3c0.1-0.1,0.2-0.2,0.2-0.3c0-0.2,0.1-0.4,0.1-0.6c0,0,0-0.1,0-0.2l-0.1-0.1
	l-0.2-0.3c0,0.2-0.1,0.3-0.5-0.2c0.3,0,0.3-0.2,0.2-0.4s-0.4-0.4-0.6-0.7l-0.1-0.2c-0.1,0.1-0.2,0.2-0.4,0.3c-0.3,0.1-0.3,0-0.3-0.1
	 M98.4,13.5c0,0,0,0.1,0,0.1c-0.2,0.1-0.3,0-0.4,0C98.2,13.6,98.4,13.6,98.4,13.5 M97.6,13.5L97.6,13.5
	C97.2,13.4,97.3,13.5,97.6,13.5 M117.4,49l-0.2,0.1C117.5,48.8,117.5,48.9,117.4,49"/>
<path id="_Path_183" class="st1" d="M119.8,41.3c-0.1,0.1-0.3,0.2-0.4,0.2l-0.1,0.5l0.3,0.3c0.1-0.1,0.1-0.2-0.1-0.2
	c0.3-0.1,0.3,0,0.4,0s0,0.2,0.3,0.1c0.1-0.1,0.2-0.2,0.4-0.3c-0.2-0.2-0.3-0.4-0.3-0.6C120.1,41.5,120,41.4,119.8,41.3"/>
<path id="_Path_184" class="st1" d="M119.2,42l0.1-0.5c-0.1,0.1-0.3,0.1-0.5,0.2L119.2,42"/>
<path id="_Path_185" class="st1" d="M87.6,18.4c0,0.2,0.1,0.4,0.3,0.4c-0.1-0.1,0-0.3,0-0.4c0.2-0.1,0.1,0.3,0.4-0.1
	c-0.2-0.3,0.8-0.7,0-0.4c0.1-0.1,0.2-0.3,0.4-0.4c0.2-0.1,0.3-0.2,0.5-0.3c-0.1,0-0.1-0.3-0.1-0.5c0-0.1,0.1-0.2,0.1-0.3
	c-0.2,0.1-0.4,0.3-0.7,0.5c-0.4,0.3-0.8,0.6-1.1,1C87.6,18.1,87.6,18.2,87.6,18.4"/>
<path id="_Path_186" class="st1" d="M96.1,14.7c0.7,0.1,2.5-0.1,3.5,0.1c0.2-0.1,0.4-0.1,0.4-0.2c-1.2,0-2.3,0-3.5,0.1L96.1,14.7"/>
<path id="_Compound_Path_10" class="st1" d="M121.5,25.7c0.3,0.2,0.2,0.7,0.2,1.1c0,0.2,0,0.5,0,0.7c0,0.2,0.1,0.5,0.3,0.6
	c-0.1,0.2-0.2-0.2-0.3,0c0.2,0.2,0.3,0.5,0.3,1l-0.1-0.1c0,0.3,0.1,0.6,0.1,0.8s0,0.1,0,0.2c0,0.1,0,0.2,0,0.2c0,0.2,0,0.5,0,0.7
	v0.5c0,0.1,0,0.3,0,0.4c0,0.3,0,0.7-0.1,1l0.2-0.1c0,0.2-0.1,0.3-0.2,0.5c0.1,0.2,0.2,0,0.2-0.2s0.1-0.5,0.3-0.3
	c-0.2,0.2-0.4,0.7-0.5,1.2c-0.1,0.2-0.2,0.4-0.4,0.6c-0.2,0.2-0.3,0.2-0.4,0.2c-0.3,0.4,0.3,0,0,0.4h-0.2l0.1,0.2h-0.1
	c-0.1,0.1-0.3,0.3-0.4,0.4c-0.1,0.1-0.2,0.1-0.3,0.1c0-0.1,0.1-0.2,0.1-0.3l0.2-0.2c-0.1,0.1-0.2,0.2-0.2,0.2
	c-0.1,0.1-0.1,0.2-0.2,0.3c-0.1,0.2-0.2,0.5-0.2,0.7c-0.1,0.4-0.1,0.7-0.1,0.8s0.2-0.6,0.2-0.7c-0.1,0.5-0.1,1-0.1,1.4l-0.1,0.6
	c0,0.2,0,0.4-0.1,0.6c0,0.5-0.3,1-0.7,1.2l0.1,0.1l-0.3,0.2l-1.1,0.6l0.9,0.7c0.2,0.1,0.4,0.3,0.5,0.5l0.1,0.1l0.1,0.1
	c0.1,0.1,0.2,0.2,0.3,0.2l0,0c0.1,0,0.2,0,0.2,0.1c0.1,0.1,0.3,0.1,0.4,0.2c-0.2-0.1-0.2,0-0.2,0.1s-0.1,0.1-0.3,0l0.2,0.1
	c0,0,0,0.1,0,0.1c0,0,0,0.1,0,0.1c0,0.1,0.1,0.1,0.1,0.2c0.1,0.1,0.1,0.2,0.1,0.3h-0.2h-0.2c0,0.2,0.1,0.2-0.3,0.5
	c0.1-0.2,0-0.2-0.1-0.2s-0.2-0.1-0.1-0.2c-0.1,0-0.2,0.1-0.3,0.1c-0.1,0.1-0.3,0.2-0.4,0.3c-0.2,0.2-0.4,0.4-0.5,0.6
	c-0.2,0.4-0.4,0.7-0.9,0.8c0,0.4,0.2,0.2,0.5,0s0.5-0.6,0.4-0.4c0.3-0.1-0.1,0.7-0.4,1c-0.2,0.2-0.4,0.3-0.7,0.4
	c-0.2,0.1-0.3,0.1-0.4,0.2c-0.1,0.1-0.2,0.1-0.2,0.2c-0.1,0.1-0.2,0.1-0.2,0.2c0.1-0.1,0-0.1,0.1-0.2c-0.2,0.1-0.3,0.2-0.4,0.4
	c-0.1,0.2-0.3,0.3-0.5,0.4c0,0.4-0.5,0.3-0.3,0.7l0.3-0.3l0.3-0.3c-0.1,0.2-0.2,0.5-0.4,0.7c-0.1,0.1-0.2,0.3-0.3,0.4
	c-0.2,0.1-0.3,0.2-0.5,0.3c0.1-0.2,0.2-0.3,0.3-0.5c-0.3,0-0.4,0.3-0.7,0.3c-0.1-0.4,0.9-0.7,1.1-1.2c-0.3,0-0.6,0.8-0.7,0.3
	c0,0.3-0.2,0.4-0.5,0.6c-0.3,0.1-0.6,0.3-0.8,0.5l-0.1-0.2c-0.1,0.1-0.3,0.3-0.4,0.3l0.2-0.4c-0.2,0.2-0.5,0.3-0.7,0.3
	c-0.3,0-0.6,0.1-0.8,0.2c0.2-0.1,0.4-0.1,0.5-0.2c0.1,0,0.1,0,0.1,0.1s0,0.2,0.2,0.2c-0.2,0.2-0.5,0.3-0.7,0.3c-0.2,0-0.3,0-0.5,0
	c-0.2,0-0.5,0-0.7,0.1c-0.4,0.2-0.8,0.4-1,0.8c0.1-0.2,0.3-0.3,0.4-0.4c0.2-0.1,0.3-0.1,0.2,0.1c-0.4,0.3-0.7,0.7-1,1.1
	c-0.1,0.2-0.1,0.4-0.1,0.7c0,0.1,0.1,0,0.1-0.1s0.2-0.5,0.2-0.1c-0.1,0.2-0.1,0.5,0,0.7c0.1,0.1,0.1,0.2,0.2,0.3l0,0
	c0.1,0.1,0.2,0.1,0.3,0.1h0.1h-0.3l0,0l0,0l-0.1-0.2l0,0h-0.1l0,0l0,0c0,0,0,0.1,0,0.1c0,0.1,0,0.1,0.1,0.2c0,0,0.1,0.1,0.1,0.2l0,0
	v0.1l0,0l0,0l0,0l0,0v0.1l0,0v-0.1l0,0l0,0v-0.1l-0.1-0.1l0,0h-0.1l-0.2,0.1l0.1-0.3l0,0l0,0l0,0l0,0l0,0l0,0l0,0v-0.1l0,0l-0.1,0.1
	l-0.2,0.2v-0.3c-0.3,0.4-0.7,0.6-1.2,0.7c0.2,0.1,0.1,0.4-0.3,0.7c-0.4,0,0.1-0.3-0.6,0.1c0.1-0.2,0.2-0.5,0.6-0.4
	c0-0.1,0.1-0.2,0.1-0.3c-0.4,0.1-0.8,0.3-1.1,0.5c0.1,0,0.2-0.1,0.3-0.1c0,0-0.2,0.2-0.4,0.4l-0.4,0.3c-0.2,0-0.1-0.1,0-0.3
	c-0.2,0.1-0.4,0.3-0.6,0.4c0-0.2-0.1-0.4,0.3-0.6l-0.1,0.1l-0.3,0.2l-0.4,0.2c-0.1,0-0.5-0.1-0.4-0.2c-0.3,0-0.6,0.1-0.8,0.3
	c-0.2,0.1-0.4,0.2-0.6,0.3h-0.2l-0.2-0.1c-0.1,0.1-0.2,0.1-0.2,0.1l-0.4-0.1l-0.5-0.2c-0.4-0.1-0.8-0.2-1.2-0.1l-0.4-0.4
	c-0.7-0.1,0.6,0.6-0.6,0.5c-0.8-0.1-0.2-0.4-0.4-0.5c-0.3,0.1-0.5,0.1-0.8,0.1c-0.3,0-0.7-0.1-0.9-0.3c0.2,0,0.4,0.1,0.6,0.2
	l-0.4-0.3c0.7-0.1,1.1,0.1,0.7-0.3c-0.1,0.3-0.6,0.2-1.1,0s-0.9-0.3-1.1,0l-0.2-0.3c0.1,0.1,0.1,0,0.2,0.1c-0.4-0.6-0.7,0.2-1.4-0.3
	c-0.2-0.2-0.4-0.4-0.1-0.4l-0.6-0.2c-0.1-0.1-0.1-0.2,0.1-0.1l-0.1-0.1l-0.3-0.2l-0.4-0.3l0,0c-0.3,0-0.5-0.1-0.7-0.2
	c-0.1-0.3,0.1,0,0.2-0.1l-0.6-0.3c-0.1-0.3,0.4-0.1,0.7,0.2c0-0.9-0.5-0.2-1.1-1.4l0.5,0.3c0-0.5-0.4-0.8-0.8-1.4
	c0,0.2,0.5,1.3-0.1,1c-0.1-0.2-0.4-0.4-0.6-0.5c0.2-0.2-0.1-0.4-0.5-0.7l0.2-0.2c-0.4-0.3-0.5-0.1-0.8-0.2c-0.3-0.2-0.3-0.6-0.2-0.9
	c-0.6-0.6,0.1,0.7-0.6,0c-0.4-0.5-1-1-1.6-1.3c-0.3-0.4,0.2-0.1,0.1-0.3l-0.5-0.1c-0.1-0.1,0-0.1,0.1-0.1c-0.3-0.2-0.2,0.2-0.7-0.1
	c-0.2,0.1-0.3-0.2-0.4-0.6c-0.1-0.4-0.3-0.7-0.7-0.9c0-0.2,0.2,0,0.3-0.2c-0.2-0.2-0.4-0.4-0.7-0.6c-0.1-0.1-0.3-0.2-0.6-0.5v-0.1
	v-0.2v-0.3c0,0.5-0.5,0.1-1-0.3V43c0.8,1.8,1.9,3.4,3.3,4.7l5.7,5.4c2.8,2.6,6.4,3.4,10,4.1c3,0.6,5.7-0.9,8.3-2.4
	c0.4-0.2,0.6-0.7,0.6-1.1c-0.5-1.6,0.6-2.2,1.8-2.5c2.2-0.6,4.1-2,5.4-3.8c0.8-1.3,1.9-2.3,3.3-3c0.2-0.1,0.4-0.5,0.5-0.8l-1.7-1.5
	c-0.1,0.1-0.3,0.2-0.4,0.2l0.1-0.5l-0.4-0.3c0.2,0,0.3-0.1,0.5-0.2l0.1-0.5l0.3,0.2c0.9-0.6,0.9-1.6,1-2.6c0-0.9,0.2-1.7,0.6-2.5
	c1.5-1.4,2-3.6,1.5-5.5c0-0.3,0-0.5,0-0.8c0-0.9-0.1-1.7-0.3-2.5c-0.2-0.8-0.4-1.5-0.6-2.2c-0.1,0.3-0.3,0.6-0.5,0.6 M90.6,51
	c0.1,0.1,0.5,0.2,0.5,0.4C90.8,51.5,90.8,51.3,90.6,51"/>
<path id="_Path_187" class="st1" d="M119.3,41.5c0.2-0.1,0.3-0.1,0.4-0.2l-0.3-0.2L119.3,41.5"/>
<path id="_Path_188" class="st1" d="M90.5,15.9l0.6-0.2c0.4-0.1,0.8-0.2,1.2-0.3c0.1,0,0.6,0,0.4,0.2c0.1-0.1,0.3-0.2,0.5-0.3
	c0.6,0.2-0.6,0.2-0.1,0.4c0-0.1,0.2-0.2,0.4-0.3s0.5-0.2,0.7-0.3c-0.1-0.1-0.3-0.1-0.6,0c-0.3,0.1-0.5,0.2-0.8,0.3
	c0-0.2,0-0.4,0.2-0.5c-1.1,0.2-2.2,0.6-3.2,1.1h0.1L90.5,15.9"/>
<path id="_Path_191" class="st1" d="M109.3,54.3l-0.1-0.2l0,0L109.3,54.3L109.3,54.3z"/>
<path id="_Path_192" class="st1" d="M119.5,42.3l-0.3-0.3l-0.1,0.5C119.2,42.5,119.4,42.4,119.5,42.3"/>
<polygon id="_Path_193" class="st1" points="109.4,54.4 109.4,54.5 109.4,54.5 109.4,54.5 109.4,54.5 109.4,54.4 109.4,54.4 "/>
<polyline id="_Path_195" class="st1" points="109.3,54.3 109.3,54.3 109.3,54.3 109.3,54.3 109.3,54.3 "/>
<polygon id="_Path_196" class="st1" points="109.4,54.5 109.4,54.5 109.4,54.5 109.4,54.5 109.4,54.4 109.4,54.4 "/>
<path id="_Path_199" class="st1" d="M109.1,54.1L109.1,54.1L109.1,54.1L109.1,54.1"/>
<path id="_Compound_Path_11" class="st1" d="M82.4,42.5c0,0.1-0.1,0.2-0.1,0.4c0.3,0.1,0.6,0.2,0.7,0.1c-0.1-0.1-0.1-0.1-0.2-0.2
	c0.1,0,0.1,0,0.2,0s-0.1-0.1-0.2-0.2l0.3-0.3h-0.2l-0.1-1.1c-0.2-0.3-0.6-0.7-0.8-1c-0.3-0.5-0.5-1-0.6-1.6c0.3,0.3,0.4,0,0.8,0
	c-0.2,0.2-0.1,0.4,0,0.7c0.1,0.3,0.2,0.6,0.3,0.9c0-0.3,0.1-0.3,0.2-0.2l-0.1-0.2l-0.1-0.4l-0.2-0.6c0.3,0,0.2-0.3,0.2-0.6
	c-0.5,0.3-0.3-0.9-0.5-1.4c0.2,0,0.3,0.1,0.3,0.7c0.2-0.3,0-0.5-0.1-0.8c-0.2-0.2-0.2-0.5-0.1-0.8c0,0.2,0,0.2,0,0.3
	c-0.1-0.3,0-1.2,0.2-1v0.2c0.1-0.5,0.2-1.2,0.2-1.8s0-1.2-0.2-1.3c0.2,0.1,0.4,0.2,0.6,0.3l-0.2-0.3l-0.3-0.7L82,31.2
	c-0.5,1.8-0.8,3.6-0.8,5.5c-0.1,1.9,0.2,3.8,0.8,5.6C82.1,42.3,82.2,42.3,82.4,42.5 M82.4,42.1c-0.1-0.2-0.1-0.3-0.1-0.5
	C82.4,41.7,82.4,41.9,82.4,42.1"/>
<polygon id="_Path_211" class="st1" points="109.4,54.4 109.4,54.4 109.4,54.4 109.4,54.4 109.4,54.4 "/>
<path id="_Path_215" class="st1" d="M85.9,24.3c0.2-0.2,0.1,0.4,0,0.6l0.6-1.3c-0.3,0,0-1.2-0.3-1.2l-0.1,0.8c0,0.2-0.1,0.4-0.1,0.5
	v0.2c-0.2,0-0.3-0.3-0.3-0.7c-0.1-0.5,0-0.9,0.1-1.4c0.2-0.2,0.5,0.4,0.6,0.4c0-0.4,0-0.7,0.2-1v0.5c0.1-0.2,0.1-0.5,0.1-0.8
	c0-0.3,0.1-0.5,0.3-0.7c0.1-0.2,0.6-0.3,0.5-0.4c-0.4,0-0.8-0.1-1.2-0.3c-0.2,0.4-0.3,0.7-0.5,1.1c-0.3,0.9-0.5,1.7-0.8,2.6
	c0.2,0.6,0.3,1.2,0.3,1.8C85.7,24.6,85.7,24.9,85.9,24.3"/>
<path id="_Path_216" class="st1" d="M83.1,31.4c0.2-0.3,0.3-0.7,0.3-1c-0.1,0.1-0.6,0.2-0.6,0c0.6-0.5,0.3-0.3,0.9-0.9
	c-0.2,0.2-0.6-0.2-0.5-0.6c0.1,0.1,0.5,0.2,0.6,0.3l-0.2-1.1c0,0.3,0.4,0.2,0.7,0.1c-0.1,0,0.3-0.8,0.3-1l-0.3,0.3
	c0.5-1-0.3-1.3,0.1-2.3c0.1,0.2,0.5,0.6,0.8,0.1c-0.1-0.2-0.3-0.6-0.5-1.1c-0.1,0.3-0.2,0.6-0.4,0.9c-0.8,1.8-1.5,3.7-2.1,5.6
	C82.6,30.7,83.1,30.8,83.1,31.4"/>
<path id="_Path_217" class="st1" d="M109.2,51.5c0,0-0.1,0.1-0.1,0.2L109.2,51.5"/>
<polygon id="_Path_218" class="st1" points="109.4,54.4 109.4,54.4 109.4,54.4 "/>
<path id="_Path_221" class="st1" d="M109.4,54.1L109.4,54.1L109.4,54.1h0.3h-0.1c-0.1,0-0.2-0.1-0.3-0.1l0,0L109.4,54.1"/>
<path id="_Path_225" class="st1" d="M83.2,42.8c0,0,0,0.1-0.1,0.1C83.1,43,83.2,43,83.2,42.8"/>
<path id="_Path_227" class="st1" d="M88.2,18.7c-0.1,0.1-0.2,0.1-0.3,0.1C87.9,18.9,88,18.9,88.2,18.7"/>
<path id="_Path_228" class="st1" d="M102.4,13.1l-0.5,0c0.2,0,0.3,0,0.4,0.1C102.4,13.2,102.3,13.1,102.4,13.1"/>
<path id="_Path_229" class="st1" d="M106.9,14.8v-0.1c-0.2,0-0.4,0-0.3,0.1L106.9,14.8L106.9,14.8"/>
<path id="_Path_230" class="st1" d="M106.9,14.8h-0.3h0.1C106.7,14.8,106.8,14.8,106.9,14.8"/>
<path id="_Path_231" class="st1" d="M102.9,13.9c0,0.2,0.3,0.1,0.7,0.1h-0.1C103.6,13.8,103.3,13.8,102.9,13.9"/>
<path id="_Path_232" class="st1" d="M104,14c0-0.1-0.1,0-0.3,0C103.8,14,103.9,14,104,14"/>
<path id="_Path_233" class="st1" d="M99.3,13.4c0.2,0,0.1-0.3,0.2-0.2C99.7,13,98.4,13.6,99.3,13.4"/>
<path id="_Path_234" class="st1" d="M103.1,14.4l-0.2,0.2h0.3h0.1L103.1,14.4z"/>
<path id="_Path_236" class="st1" d="M100.5,14.4h0.3h0.3c0,0,0.1-0.1,0.1-0.1C100.8,14.3,100.4,14.2,100.5,14.4"/>
<path id="_Path_237" class="st1" d="M101.6,14.3c-0.1,0-0.3,0-0.4,0C101.3,14.4,101.5,14.4,101.6,14.3"/>
<polygon id="_Path_238" class="st1" points="102.2,14.6 101.9,14.6 102.4,14.7 "/>
<path id="_Path_239" class="st1" d="M94,14.8c0,0.1,0.1,0.1,0.3,0.1s0.4-0.1,0.2-0.2L94,14.8z"/>
<path id="_Path_240" class="st1" d="M96.4,15.1c-0.2,0-0.2-0.1-0.3-0.2v0.3L96.4,15.1z"/>
<path id="_Path_241" class="st1" d="M94.6,15.6c0-0.1,0.6-0.2,0.1-0.2C94.6,15.4,93.9,15.7,94.6,15.6"/>
<path id="_Path_242" class="st1" d="M86.8,18.7l0.1,0.1l0.1-0.1l-0.3-0.2L86.8,18.7"/>
<path id="_Path_243" class="st1" d="M87,18.9l0.1-0.1l-0.1-0.1l-0.1,0.1L87,18.9"/>
<path id="_Path_244" class="st1" d="M85,26.1c-0.1,0.4-0.2,0.6,0.2,0.6c0.4-0.6-0.2-0.3,0.2-0.8C85.3,25.7,85,26.3,85,26.1"/>
<path id="_Path_245" class="st1" d="M85,26.1c0-0.1,0-0.2,0-0.2C85,26,85,26,85,26.1"/>
<polygon id="_Path_246" class="st1" points="123.1,24.3 123.1,24.7 123.2,24.8 "/>
<path id="_Path_247" class="st1" d="M122.8,23.9l-0.4-0.2c0,0.1,0.1,0.3,0.1,0.4L122.8,23.9z"/>
<path id="_Path_248" class="st1" d="M90.1,49.7c0,0.1,0.1,0.2,0.2,0.3L90.1,49.7L90.1,49.7z"/>
<path id="_Path_249" class="st1" d="M94.3,53.7v0.2l0.1-0.3l-0.1-0.1C94.3,53.5,94.3,53.6,94.3,53.7"/>
<path id="_Path_250" class="st1" d="M98.9,54.9c-0.2-0.1-0.4-0.1-0.6-0.1C98.8,54.8,98.9,55.2,98.9,54.9"/>
<path id="_Compound_Path_12" class="st1" d="M132.1,33.1c-0.2-0.4-0.6-0.2-0.6-0.6c0.3-0.3,0.6-0.6,1.1-0.3c0.3,0.3,0.5,0.8,0.3,1.2
	c-0.3,0.8-0.5,1.6-0.6,2.4c0.4,0.4,1.1,0,1.4,0.7c-0.2,0.7-0.8,0.5-1.4,0.7c0.1,1.3,1.7,1.1,1.9,2.2c1-1-0.1-1.9,0.1-2.8
	c2,0.2,4.2-1.1,5.9,0.8c-0.9,0.9-1,5.4-0.1,7c-2.1-0.7-3.9-0.7-5.5,0.6c-1.2-1.7-0.2-3.3-0.4-4.9l-0.9,0.4l-0.8-0.8
	c-1,2.6,1,5.6-1.1,8.3c-0.8-3-0.3-5.8-0.2-8.8c-1.4,0.7-1.8,2.6-3.6,2.6c0.7-2,2.8-2.8,3.7-4.6c-1,0.3-1.7,0.9-2.6,1
	c0.1-1.8,0.5-2.1,2.6-2.1C131.5,35.3,131.4,34,132.1,33.1 M138.6,41.7l-3.2,0.8c0,0.4-0.2,0.8,0.2,1.1c1-0.2,2-0.4,3-0.4L138.6,41.7
	z M138.6,38.8l0.5-1.3c-1.4-0.5-2.9,0.1-3.1,1.2C136.9,38.9,137.7,38.9,138.6,38.8 M138.8,40c-2.1-0.1-2.5,0-2.9,1
	C137,40.9,138.1,41.5,138.8,40"/>
<path id="_Path_251" class="st1" d="M126.1,33.7c1.1-0.2,2.1,0,3,0.7c0.4,0.7-0.1,1.2-0.2,1.7C127.4,36.2,126.9,35.8,126.1,33.7"/>
<path id="_Path_252" class="st1" d="M127.8,38.4c-0.6,0.8-1,1.5-2,1.3c-0.8-0.2-1.3-0.8-1.4-1.6C125.6,37.8,126.8,37.9,127.8,38.4"
	/>
<path id="_Path_253" class="st1" d="M125.8,41.6l1.4,1c0.1,1.7-0.1,2.1-1.4,2C125.5,43.6,125.5,42.5,125.8,41.6"/>
<path id="_Path_254" class="st1" d="M121.2,47.9c-0.1-0.1-0.2,0-0.2,0C121.2,48,121.2,47.8,121.2,47.9"/>
<polygon id="_Path_255" class="st1" points="122.8,49.1 122.8,49.1 123.1,49.2 "/>
<path id="_Path_256" class="st1" d="M124.3,50.2c0-0.3-0.6-0.3-0.8-0.6v-0.1l-0.3,0.1c0.2,0.1,0.4,0.2,0.6,0.3
	C124,50,124.2,50.1,124.3,50.2"/>
<path id="_Path_257" class="st1" d="M124.9,51.3c0-0.1,0.2,0-0.2-0.2l0,0L124.9,51.3"/>
<path id="_Path_258" class="st1" d="M124.8,51.2C124.6,51.1,124.8,51.3,124.8,51.2"/>
<path id="_Path_259" class="st1" d="M125.7,51.5h-0.3c0,0.1,0.2,0.2,0.1,0.2C125.8,51.8,125.8,51.7,125.7,51.5"/>
<path id="_Path_260" class="st1" d="M126,51.5h-0.1C125.8,51.5,125.8,51.5,126,51.5"/>
<path id="_Path_261" class="st1" d="M125.5,51.4l0.3,0c0-0.1,0-0.1-0.1,0C125.8,51.4,125.7,51.4,125.5,51.4"/>
<path id="_Path_262" class="st1" d="M125.4,51.3c-0.1-0.1-0.3-0.2,0-0.2C124.9,50.9,124.9,51.1,125.4,51.3"/>
<path id="_Path_263" class="st1" d="M124.6,50.1l-0.1-0.2h-0.2C124.4,49.9,124.5,50.2,124.6,50.1"/>
<path id="_Path_264" class="st1" d="M127.2,52.2c0,0,0-0.2,0-0.2H127C127.1,52,127.3,52.1,127.2,52.2"/>
<path id="_Path_265" class="st1" d="M127.2,52h0.3C127.2,51.9,127.2,52,127.2,52"/>
<polygon id="_Path_267" class="st1" points="128.4,52.5 128.1,52.6 128.5,52.5 "/>
<path id="_Path_268" class="st1" d="M129.1,52.6c-0.1,0.1,0.1,0.2,0,0.2c0.2,0,0.4,0,0.6-0.1C129.5,52.8,129.3,52.7,129.1,52.6"/>
<path id="_Path_269" class="st1" d="M129.9,52.7c-0.1,0-0.2,0.1-0.3,0.1C129.8,52.7,129.9,52.7,129.9,52.7"/>
<path id="_Path_270" class="st1" d="M128,52.1c0,0.1,0.1,0.2,0.2,0.2l-0.1-0.2L128,52.1"/>
<path id="_Path_271" class="st1" d="M128.1,52.2L128.1,52.2l0.2,0.1L128.1,52.2"/>
<path id="_Path_273" class="st1" d="M126.8,51.6c0.2,0,0.6,0,0.3-0.2C126.9,51.4,127.1,51.5,126.8,51.6"/>
<path id="_Path_274" class="st1" d="M127.9,51.9l-0.3-0.1c0,0,0,0.1-0.1,0.1L127.9,51.9"/>
<polygon id="_Path_275" class="st1" points="128,51.9 127.9,51.9 128,51.9 "/>
<path id="_Path_276" class="st1" d="M129.4,52.5c0.1,0,0.3,0,0.4,0c-0.2-0.1-0.3-0.1-0.5-0.1C129.3,52.3,129.2,52.5,129.4,52.5"/>
<polygon id="_Path_278" class="st1" points="131.5,52.5 131.5,52.5 131.5,52.5 "/>
<path id="_Path_279" class="st1" d="M129.3,52.3c-0.1,0-0.2,0-0.3,0H129.3L129.3,52.3"/>
<path id="_Path_280" class="st1" d="M130.4,52.6l-0.2-0.1C130.2,52.6,130.4,52.7,130.4,52.6"/>
<path id="_Path_282" class="st1" d="M128.8,52.4c0.1,0,0.1,0,0.2-0.1L128.8,52.4L128.8,52.4"/>
<path id="_Path_283" class="st1" d="M132,51.5c0,0.2-0.4,0.3-0.6,0.1c-0.3,0.1-0.1,0.6,0.1,0.9c0-0.1,0-0.1,0.3-0.2
	c-0.1-0.1-0.7-0.2-0.4-0.3s0.3,0,0.5,0.1c-0.2-0.2,0.5-0.3,0.4-0.5l-0.3,0.1C131.9,51.6,132.1,51.5,132,51.5"/>
<path id="_Path_284" class="st1" d="M130.9,52.5h-0.1c0.2,0,0.3,0.1,0.4,0.2c0.2-0.1,0.3-0.1,0.3-0.2h-0.3L130.9,52.5L130.9,52.5z"
	/>
<path id="_Path_285" class="st1" d="M130.2,52.4c0.1-0.2,0.4-0.2,0.2-0.4c-0.4,0-0.3,0.1-0.5,0.2C130.5,52.2,129.8,52.3,130.2,52.4
	c-0.1,0-0.2,0-0.3,0L130.2,52.4L130.2,52.4L130.2,52.4L130.2,52.4C130.2,52.5,130.2,52.5,130.2,52.4
	C130.3,52.5,130.2,52.5,130.2,52.4L130.2,52.4L130.2,52.4l0.6,0C130.6,52.5,130.4,52.5,130.2,52.4"/>
<path id="_Path_287" class="st1" d="M127.7,51.3c-0.1,0-0.2,0-0.2,0c-0.1-0.1,0-0.1,0-0.1s-0.3,0-0.1,0.2l0,0
	c0.2,0.1,0.4,0.4,0.4,0.4C127.8,51.6,127.7,51.4,127.7,51.3"/>
<path id="_Path_288" class="st1" d="M128.9,51.9h0.5l-0.2-0.2v0.1C128.9,51.7,129,51.8,128.9,51.9"/>
<polygon id="_Path_289" class="st1" points="131.5,52.6 131.5,52.8 131.8,52.5 "/>
<polygon id="_Path_290" class="st1" points="132.2,52.6 132.2,52.7 132.3,52.6 "/>
<path id="_Path_292" class="st1" d="M137.1,29.5L137.1,29.5C137.1,29.4,137.1,29.4,137.1,29.5"/>
<path id="_Path_293" class="st1" d="M145.2,44.6c0.2-0.2,0.5-0.3,0.3-0.3h-0.2C145.3,44.3,145.3,44.5,145.2,44.6"/>
<path id="_Path_294" class="st1" d="M143.3,34.3L143.3,34.3l0.2,0.1L143.3,34.3"/>
<path id="_Path_295" class="st1" d="M142.7,34.5v-0.1c0,0,0-0.1,0-0.1C142.7,34.3,142.7,34.4,142.7,34.5"/>
<path id="_Path_296" class="st1" d="M131.2,28l-0.2,0.2C131.3,28.2,131.2,28.1,131.2,28"/>
<path id="_Path_297" class="st1" d="M138.6,50.9c0.2,0,0.3-0.1,0.4-0.1C138.8,50.8,138.6,50.8,138.6,50.9"/>
<path id="_Path_299" class="st1" d="M139.5,50.5h-0.1c-0.1,0.1-0.2,0.2-0.4,0.2C139.2,50.8,139.4,50.7,139.5,50.5"/>
<path id="_Path_301" class="st1" d="M120.5,45.3c0-0.1-0.1-0.1-0.1-0.2C120.4,45.1,120.4,45.2,120.5,45.3"/>
<path id="_Path_303" class="st1" d="M134,51.9C134.1,51.9,134.1,51.9,134,51.9C134,51.9,134,51.9,134,51.9"/>
<path id="_Path_307" class="st1" d="M135,52.4c-0.1,0-0.2,0-0.2,0c0,0,0.1,0,0,0H135"/>
<path id="_Path_310" class="st1" d="M144,40.5c0.2,0.1,0.2,0.3,0.1,0.4l0.5-0.2L144,40.5z"/>
<path id="_Compound_Path_13" class="st1" d="M134.1,28.4l0.1,0.1l0.1,0.1c-0.4,0.1-0.7,0-0.4,0.3c0.2-0.5,1.1,0.3,1.4-0.2l0.1,0.1
	l0.1,0.1c-0.1,0-0.1,0-0.1,0c0.3,0.4,0.4-0.2,0.9,0c0.1,0.1,0.2,0.2,0.1,0.2h0.2h0.2c0.1,0.1,0,0.1-0.1,0.1l0.6,0.2l0,0
	c0.1,0,0.3-0.1,0.5-0.1c0.1,0.1-0.1,0-0.1,0.1l0.4,0.1c0.1,0.2-0.2,0.2-0.4,0c0,0.6,0.3,0,0.7,0.6l-0.3-0.1c0,0.1,0.1,0.3,0.2,0.4
	c0.1,0.1,0.2,0.2,0.3,0.4c0-0.1-0.3-0.8,0-0.7c0.1,0.1,0.2,0.2,0.4,0.2c-0.1,0.2,0.1,0.2,0.3,0.3l-0.2,0.2c0.2,0.1,0.3,0,0.5,0
	c0.1,0.1,0.2,0.4,0.1,0.5c0.3,0.3,0-0.4,0.4-0.1c0.2,0.3,0.5,0.4,0.9,0.7c0.1,0.3-0.1,0.1-0.1,0.2l0.3,0c0,0,0,0.1,0,0.1
	c0.2,0.1,0.2-0.2,0.4,0c0.3-0.1,0.1,0.8,0.6,0.9c0,0.1-0.1,0-0.2,0.1c0.3,0.2,0.6,0.4,0.9,0.5l0.1,0.4c0-0.3,0.4-0.2,0.7,0
	c0-0.1,0-0.2,0.1-0.3l0.4,0.4c0,0.1-0.1,0.1-0.2,0l0.1,0.1c0,0.2-0.2,0.2-0.3,0.1v-0.2c-0.2-0.1-0.3-0.1-0.5,0
	c0.1,0,0.1,0.1,0.1,0.1c0,0-0.1,0-0.1,0s0.1,0,0.1,0.1l-0.2,0.2h0.1L143,35v0.3c0.5,0.3,1,0.7,1.3,1.3c-0.2-0.1-0.3,0-0.6,0.1
	c0.2-0.3-0.3-0.5-0.3-0.9c0,0.2-0.1,0.2-0.1,0.2l0.4,0.6c-0.2,0-0.1,0.2-0.1,0.4c0.3-0.2,0.4,0.4,0.5,0.7c-0.1,0-0.2,0-0.3-0.3
	c-0.2,0.4,0.5,0.4,0.4,0.8c0-0.1,0-0.1-0.1-0.2c0.1,0.2,0.1,0.7,0,0.6v-0.1c0,0.4,0.1,0.7,0.1,1.1c0.1,0.4,0.2,0.7,0.4,0.7
	c-0.2,0-0.3,0-0.5-0.1c0,0,0.3,0.2,0.6,0.5l0.6,0.5c-0.3-0.1-0.9,0.3-1.1-0.2c-0.1,0.2-0.1,0.4,0,0.5c0-0.1,0.4-0.2,0.4-0.1
	c-0.3,0.3-0.2,0.2-0.5,0.6c0.1-0.1,0.5,0.1,0.4,0.3c-0.1,0-0.4,0-0.5-0.1l0.2,0.3l0.1,0.2v0.1c0-0.1-0.3-0.1-0.5,0
	c0.1,0-0.1,0.4-0.1,0.5l0.1-0.2c-0.1,0.2,0,0.5,0.1,0.6c0.1,0.2,0.2,0.5,0.1,0.7c0-0.1-0.4-0.4-0.6-0.1c0.4,0.4,0.6,1,0.6,1.6h-0.2
	l-0.1,0.4c-0.1-0.2-0.2-0.5-0.2-0.9s-0.2-0.7-0.2-0.9c-0.2,0.2-0.2,0-0.3,0.3c-0.2,0-0.1-0.2,0-0.3l-0.2,0.3l-0.2,0.3
	c0.2,0.1-0.1,0.6,0.1,0.7l0.1-0.4c0.1-0.2,0.1-0.4,0.1-0.4c0.2,0.1,0.4,0.8,0.1,1.2c-0.2,0.1-0.3-0.3-0.4-0.4c0,0.2-0.1,0.4-0.2,0.5
	V46c-0.1,0.1-0.1,0.2-0.1,0.4c0,0.1,0,0.2-0.2,0.3s-0.4,0-0.4,0.1c0.4,0.2,0.8,0.6,1,1c-0.3,0.1-0.7,0.2-1,0.2
	c-0.3-0.1-0.1-0.6-0.3-0.7c0,0.1,0,0.2,0,0.2s-0.1-0.2-0.3,0c0.1,0.2-0.5,0.3,0,0.3c-0.2,0.2-0.3,0.1-0.6,0.3c0.2,0.1,0,0.6-0.2,0.9
	c0-0.1-0.1-0.1-0.2-0.1c-0.5,0.3-0.9,0.3-1.4,0.6c-0.1,0-0.4,0-0.3-0.1c0,0.1-0.1,0.2-0.2,0.3c-0.4,0,0.3-0.2,0-0.3
	c0,0.1-0.3,0.4-0.5,0.6c0.2,0.2,0.5-0.2,0.7-0.4c0.1,0.3-0.1,0.8-0.6,1.2s-0.3-0.1-0.3,0c-0.8,0.3-0.5,0.8-1.3,0.9
	c-0.4-0.1-0.1-0.4-0.3-0.5c0.3-0.2,0.6-0.1,0.8-0.2h-0.3c0.1-0.1,0.3-0.2,0.5-0.2c-0.3-0.1-1.4,0.5-2.1,0.5
	c-0.1,0.1-0.3,0.2-0.2,0.3l0.2-0.1c0.2,0.1-0.4,0.3-0.1,0.3c-0.2,0.1-0.3,0.2-0.5,0.3c-0.2,0.1-0.4,0.1-0.6,0.1l-0.1-0.2
	c0,0.1,0.3,0.1,0.4,0c-0.2,0.1-0.7-0.3-0.8,0l0.3,0.1c-0.3,0.1-0.6,0.4-1,0.3c0.2,0.2,0.1,0,0.4,0.2c-0.2-0.3,1-0.1,0.6-0.4
	c0.3,0.3,0.5,0.1,0.9,0.3c0-0.1-0.2-0.1,0.2-0.1l0.1-0.1l0,0l0,0c-0.1,0-0.1,0-0.2-0.1c0.1-0.1,0.3-0.2,0.4-0.2
	c0.1-0.1,0.3-0.1,0.4-0.2c0.2,0-0.1,0.1,0.1,0.2l0.1-0.1l0.1-0.1c0.1,0.2,0.6,0.1,0.2,0.3L136,52c0.3,0,0.5-0.1,0.7-0.2
	c0.2,0,0.4-0.3,0.3-0.2l0.3-0.2l0.3-0.2l0,0c0.6-0.2,1-0.8,1.8-0.8c0.2-0.2,0.4-0.3,0.6-0.4l0.1,0.1c0.2-0.2,0.8-0.3,0.8-0.5
	c0.4,0.2,1.2-0.6,1.6-0.9l-0.1-0.2c0.3-0.2,0.6-0.5,0.8-0.8l-0.1-0.1c0.1-0.2,0.3-0.4,0.5-0.6c0.2-0.2,0.4-0.4,0.5-0.6
	c0,0.1,0,0.2-0.1,0.2c0.7-0.4,0.4-1.3,0.9-1.7c0-0.1,0.1-0.3,0.1-0.3l0,0v-0.1l0.2-0.2c-0.1,0-0.1,0.1-0.2,0.1
	c0.1-0.1,0.1-0.3,0.1-0.5h0.2l0,0c0.1-0.1,0-0.2-0.2-0.1c0-0.1,0-0.2,0-0.2c0.3,0,0-0.5,0.4-0.6c-0.1-0.2,0.1-0.9-0.2-1
	c0,0,0.1,0,0.1,0c0.1-0.2,0.1-0.4,0-0.6l0.2-0.1l-0.1-0.2l-0.1-0.2c0.1-0.2,0.2-0.3,0.4-0.1c-0.3-0.6-0.1-0.5-0.4-1h0.1
	c0-0.2-0.2-0.5-0.1-0.6c0.1-0.4,0.1-0.9,0-1.3c0-0.3-0.1-0.6-0.1-0.9c-0.1-0.3-0.1-0.6-0.1-0.9c-0.2,0.2-0.2,0-0.1-0.1
	s0-0.4-0.1-0.3c0.1-0.1,0.1-0.2,0.2-0.1c-0.1-0.2-0.2-0.4-0.2-0.6c0-0.2-0.2-0.4-0.3-0.5c0.1-0.1,0.2,0,0.2,0s-0.1-0.1-0.1-0.2
	s0.1,0,0.2,0.1c-0.2-0.5-0.6-0.4-0.9-0.3c0-0.3-0.1-0.4-0.4-0.5c0-0.1,0-0.3,0.2,0c-0.1-0.2-0.5-1-0.7-0.9c0-0.1-0.1-0.2-0.2-0.2
	c-0.2-0.2-0.3-0.5-0.5-0.7v0.1c-0.3,0-0.3-0.2-0.5-0.5l0,0c-0.4-0.7-0.3-0.2-0.6-0.9l-0.1,0.2c-0.2,0.1-0.2,0-0.3-0.2
	s-0.2-0.5-0.4-0.6l0.1,0.2c-0.3,0-0.2-0.8-0.4-1c0-0.1,0.1,0,0.2,0c-0.4-0.6-0.2,0.1-0.6-0.1c0-0.2,0.3-0.2,0-0.4
	c0-0.1-0.3-0.2-0.6-0.2c-0.3,0-0.5-0.2-0.7-0.4c0,0.1,0.1,0.3-0.1,0.2s-0.7-0.7-1.1-0.6c0,0,0-0.1,0-0.1c-0.3,0-0.8-0.2-1-0.1
	c0-0.2-0.1-0.3-0.2-0.3c-0.2-0.1-0.4-0.1-0.5-0.1c-0.4,0-0.7,0-0.6-0.3l-0.4-0.1l-0.4-0.1v0c-0.3-0.1-0.6-0.1-0.9,0
	c-0.1-0.1,0-0.1,0-0.1c-0.5-0.2-1-0.2-1.4,0v-0.2c-0.2,0.1-1.1-0.4-1.8-0.2c0,0,0-0.1,0.1-0.1c-0.2,0-0.4,0-0.7,0h-0.7
	c-0.4,0-0.8,0-0.9,0.4l-0.5,0.3c0.7-0.1,0,0.3,0.3,0.3c-0.2,0.1-0.7,0-0.4-0.1h0.1c0-0.2-0.2-0.2-0.4-0.1s-0.4,0.2-0.5,0.1
	c-1.3,0.5-2.5,1.2-3.5,2.1l0.3,0.1l-0.3,0.3c-0.1,0-0.3,0,0-0.3c-0.2,0-0.3,0.5-0.3,0.5c-0.5,0.4-0.1-0.4-0.2-0.3l-0.2,0.2h0.1
	c-0.1,0.2,0,0.3-0.3,0.6s-0.2,0-0.3,0s0,0-0.1,0.1s-0.4,0.4-0.4,0.4l0.3,0c-0.1,0.3-0.3,0.4,0,0.4c-0.6,0-1.3,1.7-1.5,1.8
	c0,0.4-0.1,0.8-0.3,1.1c0.1-0.1,0.3-0.1,0.2,0.3c-0.2-0.1-0.3,0-0.4,0.2s-0.2,0.5-0.4,0.6c0.1-0.1,0.1,0.2,0.1,0.4s0,0.5,0.2,0.3
	c-0.1,0.3-0.2,0-0.3,0.2c0.1,0.8-0.3,1.6-0.2,2.5c0.1,0,0.2-0.1,0.3,0.1l-0.3,0.5c0,0.2,0.4,0.2,0.2,0.5c0.1,0,0.1-0.1,0.2,0
	c-0.1,0.9,0.1,1.9,0.5,2.7c0.4,0.8,0.7,1.7,0.9,2.6c0-0.3,0.1-0.1,0.2,0c0-0.1,0.1-0.1,0.2-0.1v0.4c0,0.2,0,0.4,0,0.4
	c0.3,0,0.3,0.7,0.5,0.7l-0.1-0.2c0.2,0.1,0.3-0.1,0.4-0.2s0.2-0.4,0.4-0.5c-0.4-0.2,0-1.1-0.6-1.4c0-0.1,0.1,0,0.2,0
	c-0.2-0.1-0.3-0.2-0.4-0.5h0.1c-0.3-0.7-0.5-1.4-0.6-2.1l-0.1,0.1c0-0.1,0-0.2,0-0.3c-0.3-0.2,0.1,0.5-0.2,0.4
	c0.1-0.1,0.1-0.2,0.1-0.4c0-0.2,0-0.3-0.1-0.5c-0.1-0.3-0.1-0.7,0.1-0.8c0-0.3-0.2,0.1-0.2-0.2l0.1-0.1l-0.1-0.1
	c0-0.2,0.1-0.3,0.2-0.3c0,0.1,0,0.1,0,0.2c0.1-0.3-0.1-0.8,0-0.8l-0.1,0.3c-0.1-0.9,0.1-1.9,0-2.8l-0.1,0c-0.1-0.7,0.2-0.5,0.2-1.2
	l0,0c-0.1-0.2-0.1-0.3,0-0.5c0,0.2,0.3-0.2,0.3,0c0.1-0.7,0-0.3-0.1-0.9h0.2c-0.1-0.2-0.1-0.4,0-0.6c0,0.3,0.3-0.1,0.3,0.3
	c0.2-0.2,0.4-0.4,0.4-0.7c0.1-0.2,0.1-0.4,0.4-0.4c-0.1-0.5-0.6,0.4-0.5,0.2c-0.2,0.1-0.1-0.4,0.1-0.6s0.6,0,1-0.5
	c0,0,0,0.1-0.1,0.1c0.2-0.1,0.2-0.4,0.5-0.5c-0.1-0.3,0.2-0.2,0.1-0.5l-0.3,0.5c0.1-0.3,0.1-0.8,0.6-1c0,0.1,0,0.2-0.1,0.3
	c0.2,0,0.2-0.2,0.4-0.3c0.2,0.3-0.5,0.5-0.5,0.9c0.2,0,0.3-0.6,0.4-0.2c-0.1-0.5,0.5-0.3,0.5-0.8l0.1,0.2c0-0.1,0.1-0.2,0.2-0.3v0.3
	c0.1-0.3,0.6-0.2,0.8-0.5c-0.5,0.4-0.2-0.1-0.5,0c0.5-0.7,0.6,0.1,1.3-0.4c-0.1,0.1-0.4,0.1-0.3,0c0.2-0.1,0.3-0.1,0.5-0.1
	c0.5-0.3-0.2-0.1,0-0.3c0.3,0.1,0.2-0.2,0.4-0.4l0.1,0.2c0.6-0.1,0-0.4,0.6-0.5l-0.1,0.2c0,0.1-0.1,0.1-0.1,0.2
	c0.1-0.1,0.2-0.1,0.3-0.2v0.2c0.2-0.2,0.4-0.3,0.7-0.2c-0.1-0.1,0-0.3,0.3-0.4s-0.1,0.2,0.3,0.1c-0.1,0.1-0.2,0.3-0.4,0.1
	c0,0.1-0.1,0.1-0.1,0.2c0.3,0.2,0.7,0.2,1,0.1c-0.1,0-0.1,0-0.2,0l0.6-0.3c0.1,0.1,0,0.1,0,0.2c0.1-0.1,0.2-0.1,0.4-0.1
	c0,0.2,0,0.3-0.3,0.4l0.6-0.2c0,0.1,0.3,0.2,0.2,0.2c0.3,0.1,0.8-0.3,1.2-0.1c0,0,0.1-0.1,0.2-0.1c0.4,0,0.7,0.3,1.2,0.2l0.2,0.3
	c0.4,0-0.3-0.4,0.3-0.4c0.4,0,0.1,0.3,0.2,0.4c0.2-0.1,0.7-0.3,1,0.1C134.3,28.5,134.2,28.4,134.1,28.4 M138.4,30.1
	c-0.1,0-0.3,0-0.3-0.1C138.2,29.8,138.3,30,138.4,30.1 M143.3,35.1c-0.1,0-0.1-0.1-0.1-0.3C143.3,34.9,143.3,35,143.3,35.1
	 M136.3,51.9L136.3,51.9C136.5,51.9,136.5,51.9,136.3,51.9 M135.8,52C135.8,52,135.8,52,135.8,52c0,0.1,0.1,0,0.2,0
	C136.1,51.9,136,51.9,135.8,52 M121.5,30.4h0.1C121.5,30.6,121.5,30.6,121.5,30.4"/>
<path id="_Path_311" class="st1" d="M142.8,34.5C142.8,34.4,142.8,34.4,142.8,34.5C142.8,34.4,142.8,34.4,142.8,34.5"/>
<path id="_Path_313" class="st1" d="M141.2,47.5c0.1,0,0.1,0,0.2,0C141.4,47.5,141.3,47.5,141.2,47.5"/>
<path id="_Path_314" class="st1" d="M133.4,52.7l0.3-0.1C133.6,52.6,133.5,52.6,133.4,52.7C133.4,52.6,133.4,52.7,133.4,52.7"/>
<path id="_Path_315" class="st1" d="M130.9,51.6c0,0-0.1,0-0.1,0v0.1C130.9,51.7,131,51.6,130.9,51.6"/>
<path id="_Path_316" class="st1" d="M133.1,52.1c0-0.2-0.2-0.1-0.4,0l0,0C132.6,52.3,132.8,52.2,133.1,52.1"/>
<path id="_Path_317" class="st1" d="M132.6,52.1h-0.2C132.4,52.2,132.5,52.1,132.6,52.1"/>
<path id="_Path_318" class="st1" d="M135.3,52.2c-0.1,0,0,0.2-0.1,0.2c0,0.1,0.1,0,0.2-0.1S135.5,52.1,135.3,52.2"/>
<polygon id="_Path_319" class="st1" points="132.9,51.6 132.9,51.8 133.1,51.6 "/>
<path id="_Path_320" class="st1" d="M134.4,51.6h-0.3c0,0,0,0-0.1,0.1C134.2,51.7,134.5,51.7,134.4,51.6"/>
<path id="_Path_321" class="st1" d="M134,51.7c-0.1,0-0.2,0-0.2,0C133.9,51.7,134,51.7,134,51.7"/>
<polygon id="_Path_322" class="st1" points="133.3,51.5 133.4,51.6 133.6,51.6 "/>
<path id="_Path_323" class="st1" d="M137.7,50.5l0.3-0.2c0-0.1-0.1-0.1-0.2,0S137.6,50.5,137.7,50.5"/>
<path id="_Path_324" class="st1" d="M136.5,50.5c0.1,0,0.1,0,0.2,0.1l-0.1-0.2L136.5,50.5z"/>
<path id="_Path_325" class="st1" d="M137.4,50c0-0.1,0.4-0.4,0-0.2C137.4,49.9,137.1,50.1,137.4,50"/>
<polygon id="_Path_326" class="st1" points="141.9,47.7 141.9,47.7 142.1,48 "/>
<path id="_Path_327" class="st1" d="M143.5,43.6c-0.2,0.3,0.2,0.2,0,0.4c0,0.1,0.2-0.2,0.2-0.1C143.7,43.6,143.8,43.5,143.5,43.6"/>
<path id="_Path_328" class="st1" d="M143.6,43.9c0,0,0,0.1,0,0.1C143.7,44,143.7,43.9,143.6,43.9"/>
<path id="_Path_329" class="st1" d="M120.7,46.2v0.2V46.2L120.7,46.2z"/>
<path id="_Path_330" class="st1" d="M121.1,46.5l-0.2,0.1l0.3,0.1C121.1,46.7,121,46.5,121.1,46.5"/>
<path id="_Path_331" class="st1" d="M138.7,30.8L138.7,30.8c0-0.1,0-0.1-0.1-0.2L138.7,30.8z"/>
<polygon id="_Path_332" class="st1" points="135.9,29.2 135.9,29.2 135.9,29 "/>
<path id="_Path_333" class="st1" d="M133.2,28.7c0.1,0,0.2,0,0.4,0C133.3,28.7,133.2,28.4,133.2,28.7"/>
<path id="_Path_334" class="st1" d="M90.4,9.3c-0.1-0.4-0.2-0.8-0.4-1.1c-1.1-0.1-1.1,0.5-0.9,1.3C89.5,9.5,90.1,9.6,90.4,9.3"/>
<path id="_Path_335" class="st1" d="M89.4,12.2c0.1-1.2-0.8-1.5-1.5-0.9c0,0.5-0.1,1,0.2,1.3C88.6,12.7,89.1,12.6,89.4,12.2"/>
<path id="_Path_336" class="st1" d="M90.2,51c-0.3,0.1-0.6-0.4-0.9-0.4c-0.5,0-0.9,0.6-1.5,0.7c-0.1,1.3,1.1,1.4,1.9,1.8
	C90.3,52.6,90.4,52.1,90.2,51"/>
<path id="_Path_337" class="st1" d="M120.8,50.8c-0.2,0-0.5-0.1-0.7-0.3c-0.3-0.3-0.8-0.5-1.3-0.3c-0.8,0.4-1.3,1.2-1.2,2.1
	c0,0.3,0.1,0.6,0.2,0.8c0.2,0.3,0.4,0.5,0.6,0.8c0.1,0.2,0.3,0.4,0.6,0.5c0.1,0,0.3,0.1,0.4,0.2c0.3,0.2,0.7,0.2,1,0.1
	c0.2,0,0.4-0.1,0.5-0.2c0.5-0.7,0.7-1.5,0.5-2.3c0-0.3-0.2-0.6-0.4-0.8C121,51.2,120.8,51,120.8,50.8"/>
<path id="_Path_338" class="st1" d="M114.1,55.1c-0.2,0.6,0,0.9,0.2,1.4C115.1,56.3,115.3,54.6,114.1,55.1"/>
<path id="_Path_339" class="st1" d="M76.8,23.6c-0.4,0-0.3-0.6-0.8-0.4c-0.4,0.3-0.4,1-0.6,1.4c0.6,0.4,0.6-0.1,1.3,0.2
	C76.4,24.2,76.9,24.2,76.8,23.6"/>
<path id="_Path_340" class="st1" d="M111.8,11.5C112.4,10.5,111.4,11,111.8,11.5"/>
<path id="_Path_341" class="st1" d="M114.8,11.5C115.4,12,114.3,11,114.8,11.5"/>
<path id="_Path_344" class="st1" d="M127.1,48.3v-0.1c-0.1,0-0.1-0.1-0.1-0.1C127,48.2,127,48.3,127.1,48.3"/>
<path id="_Path_345" class="st1" d="M128,47.8c0-0.1,0.1-0.1,0.1-0.2C127.9,47.5,127.9,47.8,128,47.8"/>
<path id="_Path_346" class="st1" d="M126.9,47.5c0.1,0-0.1,0.2,0.1,0.2s0.1-0.2,0.1-0.3v0.1C127.1,47.6,126.9,47.5,126.9,47.5"/>
<path id="_Path_347" class="st1" d="M126.5,49.7c0.1,0,0.1-0.3,0-0.3S126.4,49.6,126.5,49.7"/>
<path id="_Path_348" class="st1" d="M126.8,49.6L126.8,49.6L126.8,49.6L126.8,49.6"/>
<path class="st0" d="M8.2,128.5c0-0.3,0.3-0.6,0.6-0.6c0.3,0,0.6,0.3,0.6,0.6l0,0v2.4h4.3v-2.4c0-0.3,0.3-0.6,0.6-0.6
	c0.3,0,0.6,0.3,0.6,0.6l0,0v6c0,0.3-0.3,0.6-0.6,0.6c-0.3,0-0.6-0.3-0.6-0.6v-2.4H9.3v2.4c0,0.3-0.3,0.6-0.6,0.6
	c-0.3,0-0.6-0.3-0.6-0.6L8.2,128.5z"/>
<path class="st0" d="M31.7,128.5c0-0.3,0.3-0.6,0.6-0.6c0.3,0,0.6,0.3,0.6,0.6v3.2c0,1.9-1.5,3.4-3.3,3.4c-1.9,0-3.4-1.5-3.4-3.3
	c0,0,0,0,0,0v-3.2c0-0.3,0.3-0.6,0.6-0.6c0.3,0,0.6,0.3,0.6,0.6v3.3c0,1.2,1,2.1,2.2,2.1s2.2-1,2.2-2.1V128.5z"/>
<path class="st0" d="M44.2,128.5c0-0.3,0.3-0.6,0.6-0.6c0,0,0,0,0,0c0.2,0,0.3,0.1,0.4,0.2l5,5v-4.6c0-0.3,0.3-0.6,0.6-0.6
	c0.3,0,0.6,0.3,0.6,0.6v6c0,0.3-0.3,0.6-0.6,0.6c-0.1,0-0.3-0.1-0.4-0.1l-5-5v4.6c0,0.3-0.3,0.6-0.6,0.6c-0.3,0-0.6-0.3-0.6-0.6
	L44.2,128.5z"/>
<path class="st0" d="M65.9,128.2c0.2-0.3,0.6-0.3,0.8-0.2c0.1,0,0.1,0.1,0.2,0.2l3.5,6c0,0.1,0.1,0.2,0.1,0.3c0,0.3-0.3,0.6-0.6,0.6
	c0,0,0,0,0,0c-0.2,0-0.5-0.1-0.6-0.4l-0.7-1.1h-4.5l-0.7,1.1c-0.1,0.2-0.3,0.4-0.6,0.4c-0.3,0-0.6-0.3-0.6-0.6l0,0
	c0-0.1,0-0.2,0.1-0.3L65.9,128.2z M66.4,129.7l-1.6,2.7H68L66.4,129.7z"/>
<path class="st0" d="M81.5,128.5c0-0.3,0.3-0.6,0.6-0.6c0,0,0,0,0,0c0.2,0,0.3,0.1,0.4,0.2l5,5v-4.6c0-0.3,0.3-0.6,0.6-0.6
	s0.6,0.3,0.6,0.6v6c0,0.3-0.3,0.6-0.6,0.6c-0.1,0-0.3-0.1-0.4-0.1l-5-5v4.6c0,0.3-0.3,0.6-0.6,0.6c-0.3,0-0.6-0.3-0.6-0.6
	L81.5,128.5z"/>
<path class="st0" d="M112.7,128.5c0-0.3,0.3-0.6,0.6-0.6c0.3,0,0.6,0.3,0.6,0.6v4.6l5-5c0.2-0.2,0.6-0.2,0.9,0s0.2,0.6,0,0.9
	l-2.6,2.6l2.6,2.6c0.1,0.1,0.2,0.3,0.2,0.4c0,0.3-0.3,0.6-0.6,0.6c-0.1,0-0.3-0.1-0.4-0.1l-2.6-2.6l-2.6,2.6c-0.2,0.2-0.6,0.2-0.8,0
	c-0.1-0.1-0.1-0.2-0.2-0.4L112.7,128.5z"/>
<path class="st0" d="M131.1,128.5c0-0.3,0.3-0.6,0.6-0.6c0.3,0,0.6,0.3,0.6,0.6v6c0,0.3-0.3,0.6-0.6,0.6c-0.3,0-0.6-0.3-0.6-0.6
	V128.5z"/>
<path class="st0" d="M146.3,129.1h-2.4c-0.3,0-0.6-0.3-0.6-0.6c0-0.3,0.3-0.6,0.6-0.6c0,0,0,0,0,0h6c0.3,0,0.6,0.3,0.6,0.6
	c0,0.3-0.3,0.6-0.6,0.6c0,0,0,0,0,0h-2.4v5.4c0,0.3-0.3,0.6-0.6,0.6c-0.3,0-0.6-0.3-0.6-0.6L146.3,129.1z"/>
<path class="st0" d="M166.8,128.9c0.2,0.1,0.2,0.3,0.2,0.5c0,0.3-0.3,0.6-0.6,0.6c-0.1,0-0.3-0.1-0.4-0.1c-0.4-0.5-1.1-0.7-1.7-0.7
	c-0.6,0-1.3,0.2-1.7,0.7c-0.9,1-0.8,2.5,0.2,3.4c0.9,0.8,2.3,0.8,3.2,0c0.2-0.2,0.6-0.2,0.9,0s0.2,0.6,0,0.9c-0.7,0.7-1.6,1-2.5,1
	c-2,0-3.6-1.6-3.6-3.6c0,0,0,0,0,0c0-2,1.6-3.6,3.6-3.6C165.3,127.9,166.2,128.2,166.8,128.9L166.8,128.9z"/>
<path class="st0" d="M178.2,128.5c0-0.3,0.3-0.6,0.6-0.6c0.3,0,0.6,0.3,0.6,0.6v2.4h4.3v-2.4c0-0.3,0.3-0.6,0.6-0.6
	c0.3,0,0.6,0.3,0.6,0.6v6c0,0.3-0.3,0.6-0.6,0.6c-0.3,0-0.6-0.3-0.6-0.6v-2.4h-4.3v2.4c0,0.3-0.3,0.6-0.6,0.6
	c-0.3,0-0.6-0.3-0.6-0.6V128.5z"/>
<path class="st0" d="M196.3,128.5c0-0.3,0.3-0.6,0.6-0.6h0h5c0.3,0,0.6,0.3,0.6,0.6c0,0.3-0.3,0.6-0.6,0.6c0,0,0,0,0,0h-4.4v1.8h3.4
	c0.3,0,0.6,0.3,0.6,0.6c0,0.3-0.3,0.6-0.6,0.6c0,0,0,0,0,0h-3.4v1.8h4.4c0.3,0,0.6,0.3,0.6,0.6c0,0.3-0.3,0.6-0.6,0.6h-5
	c-0.3,0-0.6-0.3-0.6-0.6v0V128.5z"/>
<path class="st0" d="M213.7,128.5c0-0.3,0.3-0.6,0.6-0.6h0c0.2,0,0.3,0.1,0.4,0.2l5,5v-4.6c0-0.3,0.3-0.6,0.6-0.6s0.6,0.3,0.6,0.6v6
	c0,0.3-0.3,0.6-0.6,0.6c-0.1,0-0.3-0.1-0.4-0.1l-5-5v4.6c0,0.3-0.3,0.6-0.6,0.6c-0.3,0-0.6-0.3-0.6-0.6L213.7,128.5z"/>
</svg>
